<svg width="512" height="512" viewBox="0 0 512 512" fill="none" xmlns="http://www.w3.org/2000/svg">
<g id="dit-uop-logo-simple-white" clip-path="url(#clip0_98_315)">
<g id="secondary">
<path fill-rule="evenodd" clip-rule="evenodd" d="M300.238 347.243L308.723 355.728L282.903 381.548V431.045L263.468 450.48L254.983 441.995L270.903 426.075V393.548L218.213 446.238L209.728 437.752L300.238 347.243Z" fill="#EEEEEE"/>
<path d="M267.711 454.723C263.025 459.409 255.427 459.409 250.74 454.723C246.054 450.037 246.054 442.439 250.74 437.752C255.427 433.066 263.025 433.066 267.711 437.752C272.397 442.439 272.397 450.037 267.711 454.723Z" fill="#EEEEEE"/>
<path d="M222.456 450.48C217.77 455.167 210.172 455.167 205.485 450.48C200.799 445.794 200.799 438.196 205.485 433.51C210.172 428.823 217.77 428.823 222.456 433.51C227.142 438.196 227.142 445.794 222.456 450.48Z" fill="#EEEEEE"/>
<path fill-rule="evenodd" clip-rule="evenodd" d="M244.694 302.556L253.179 311.042L222.409 341.811V392.723L203.681 411.451L195.196 402.966L210.409 387.752V353.811L194.853 369.368H172.226L137.213 404.38L128.728 395.894L167.255 357.368H189.882L244.694 302.556Z" fill="#EEEEEE"/>
<path d="M141.456 408.622C136.77 413.309 129.172 413.309 124.486 408.622C119.799 403.936 119.799 396.338 124.486 391.652C129.172 386.966 136.77 386.966 141.456 391.652C146.142 396.338 146.142 403.936 141.456 408.622Z" fill="#EEEEEE"/>
<path d="M207.924 415.693C203.238 420.38 195.64 420.38 190.954 415.693C186.267 411.007 186.267 403.409 190.954 398.723C195.64 394.037 203.238 394.037 207.924 398.723C212.61 403.409 212.61 411.007 207.924 415.693Z" fill="#EEEEEE"/>
<path fill-rule="evenodd" clip-rule="evenodd" d="M155.485 338.985L187.727 306.743L196.213 315.228L160.455 350.985H132.97L132.97 338.985H155.485Z" fill="#EEEEEE"/>
<path d="M132.971 356.985C126.343 356.985 120.971 351.612 120.971 344.985C120.971 338.357 126.343 332.985 132.971 332.985C139.598 332.985 144.971 338.357 144.971 344.985C144.971 351.612 139.598 356.985 132.971 356.985Z" fill="#EEEEEE"/>
<path fill-rule="evenodd" clip-rule="evenodd" d="M242 132C242 127.582 245.582 124 250 124C279.823 124 304 148.177 304 178C304 182.418 300.418 186 296 186C291.582 186 288 182.418 288 178C288 157.013 270.987 140 250 140C245.582 140 242 136.418 242 132Z" fill="#EEEEEE"/>
<path fill-rule="evenodd" clip-rule="evenodd" d="M242 100C242 95.5817 245.582 92 250 92C297.496 92 336 130.504 336 178C336 182.418 332.418 186 328 186C323.582 186 320 182.418 320 178C320 139.34 288.66 108 250 108C245.582 108 242 104.418 242 100Z" fill="#EEEEEE"/>
<path fill-rule="evenodd" clip-rule="evenodd" d="M242 68C242 63.5817 245.582 60 250 60C315.17 60 368 112.83 368 178C368 182.418 364.418 186 360 186C355.582 186 352 182.418 352 178C352 121.667 306.333 76 250 76C245.582 76 242 72.4183 242 68Z" fill="#EEEEEE"/>
</g>
<g id="main">
<path fill-rule="evenodd" clip-rule="evenodd" d="M256 488C384.13 488 488 384.13 488 256C488 127.87 384.13 24 256 24C127.87 24 24 127.87 24 256C24 384.13 127.87 488 256 488ZM256 512C397.385 512 512 397.385 512 256C512 114.615 397.385 0 256 0C114.615 0 0 114.615 0 256C0 397.385 114.615 512 256 512Z" fill="#FCFCFC"/>
<path d="M384 361C390.627 361 396 366.373 396 373C396 379.627 390.627 385 384 385H312C305.373 385 300 379.627 300 373C300 366.373 305.373 361 312 361H384Z" fill="#FCFCFC"/>
<path d="M312 313C305.373 313 300 307.627 300 301C300 294.373 305.373 289 312 289H360C366.627 289 372 294.373 372 301C372 307.627 366.627 313 360 313H312Z" fill="#FCFCFC"/>
<path d="M300 221C300 214.373 305.373 209 312 209C318.627 209 324 214.373 324 221V373C324 379.627 318.627 385 312 385C305.373 385 300 379.627 300 373V221Z" fill="#FCFCFC"/>
<path d="M244 207C244 200.373 249.373 195 256 195C262.627 195 268 200.373 268 207V341C268 347.627 262.627 353 256 353C249.373 353 244 347.627 244 341V207Z" fill="#FCFCFC"/>
<path d="M242 173C242 165.268 248.268 159 256 159C263.732 159 270 165.268 270 173C270 180.732 263.732 187 256 187C248.268 187 242 180.732 242 173Z" fill="#FCFCFC"/>
<path d="M200 297C206.627 297 212 302.373 212 309C212 315.627 206.627 321 200 321H128C121.373 321 116 315.627 116 309C116 302.373 121.373 297 128 297H200Z" fill="#FCFCFC"/>
<path d="M128 249C121.373 249 116 243.627 116 237C116 230.373 121.373 225 128 225H200C206.627 225 212 230.373 212 237C212 243.627 206.627 249 200 249H128Z" fill="#FCFCFC"/>
<path d="M140 309C140 315.627 134.627 321 128 321C121.373 321 116 315.627 116 309L116 237C116 230.373 121.373 225 128 225C134.627 225 140 230.373 140 237V309Z" fill="#FCFCFC"/>
<path d="M188 157C188 150.373 193.373 145 200 145C206.627 145 212 150.373 212 157V309C212 315.627 206.627 321 200 321C193.373 321 188 315.627 188 309V157Z" fill="#FCFCFC"/>
</g>
</g>
<defs>
<clipPath id="clip0_98_315">
<rect width="512" height="512" fill="white"/>
</clipPath>
</defs>
</svg>
