<svg width="512" height="512" viewBox="0 0 512 512" fill="none" xmlns="http://www.w3.org/2000/svg">
<g clip-path="url(#clip0_221_783)">
<g opacity="0.25">
<path d="M263.567 16.8094C247.225 17.7782 229.047 20.1562 221.619 22.358C219.26 23.0626 214.715 23.8552 211.569 24.1195C199.858 25.2644 174.864 33.7195 167.436 39.092C163.678 41.8223 160.795 43.2315 160.008 42.7031C159.658 42.4388 158.872 42.8792 158.26 43.5838C157.299 44.7288 151.444 47.1948 150.22 46.8425C149.958 46.7545 148.385 48.1636 146.724 50.0132C145.064 51.7747 142.267 54.0646 140.432 55.0334C138.597 56.0022 135.626 58.116 133.703 59.7013C131.868 61.2866 129.945 62.4316 129.508 62.1674C127.76 61.0224 118.846 67.4517 113.079 74.0574C110.719 76.6993 108.534 79.0777 108.01 79.4301C101.805 83.5691 94.5516 90.7033 89.7449 97.3086C86.5989 101.624 83.5404 105.852 82.9284 106.468C81.8796 107.702 79.7825 110.784 68.334 127.782C65.5375 132.01 61.8671 138.175 60.294 141.434C58.6336 144.781 56.274 149.184 54.9631 151.122C53.3901 153.412 52.5162 155.966 52.5162 157.904C52.5162 159.665 52.1666 161.25 51.7296 161.603C51.2927 161.867 50.244 163.981 49.4575 166.359C48.6709 168.737 47.0105 172.26 45.6996 174.109C43.6022 177.015 42.3788 179.482 39.4074 187.144C38.9705 188.113 38.0092 192.076 37.2226 195.951C35.9118 202.293 33.9892 209.339 30.0565 222.374C29.3574 224.751 28.3961 228.275 27.9591 230.124C27.5222 231.974 26.2113 235.408 25.0752 237.611C23.9391 239.9 22.1039 244.921 21.0552 248.796C20.0065 252.671 18.6956 256.634 18.1713 257.603C17.1226 259.541 16.773 262.887 16.1613 277.86C15.8117 285.875 15.9865 290.19 17.1226 295.475C17.9091 299.35 18.8704 305.163 19.3074 308.422C19.7443 311.769 20.3561 314.851 20.7056 315.38C20.9678 315.908 21.4048 317.846 21.4922 319.695C21.7543 323.394 23.24 326.741 24.5509 326.741C25.0752 326.741 25.4248 327.534 25.4248 328.502C25.4248 329.648 25.8617 330.088 26.7356 329.736C28.0465 329.207 28.3961 330 28.1339 333.435C28.0465 334.491 28.4835 335.548 29.1826 335.813C29.8818 336.077 30.7556 337.398 31.1052 338.807C31.3674 340.129 32.9405 343.035 34.5135 345.237C36.0865 347.438 37.6596 350.521 37.9218 352.106C38.2713 353.78 39.3201 356.07 40.2814 357.303C41.2426 358.536 42.0292 360.297 42.0292 361.09C42.0292 361.97 42.5535 363.116 43.2526 363.644C43.9518 364.261 44.8257 366.022 45.1753 367.519C45.4375 369.105 46.4861 371.306 47.3601 372.451C48.3214 373.597 49.0205 374.918 49.0205 375.358C49.0205 375.886 49.807 377.208 50.7684 378.441C51.7296 379.673 52.5162 381.435 52.5162 382.228C52.5162 383.108 53.0405 383.989 53.7396 384.254C54.3514 384.518 55.2253 386.279 55.5749 388.129C55.8371 389.978 56.7109 392.092 57.3227 392.797C57.9344 393.501 58.9831 395.703 59.5949 397.641C60.294 399.578 61.3427 401.692 61.8671 402.309C62.4788 402.925 63.0032 404.07 63.0032 404.774C63.0032 405.479 63.4401 406.008 63.8771 406.008C64.4013 406.008 65.2754 407.065 65.8869 408.385C69.0333 415.608 85.5501 434.544 96.1245 442.999C98.2222 444.672 100.581 446.698 101.368 447.402C104.514 450.221 117.273 459.733 117.972 459.733C118.322 459.733 119.72 460.702 121.031 461.934C122.342 463.167 123.74 464.137 124.177 464.137C124.614 464.137 126.974 465.281 129.246 466.778C131.606 468.188 133.878 469.421 134.315 469.421C134.752 469.421 137.024 470.389 139.471 471.446C141.83 472.591 148.385 475.058 153.89 476.907C159.396 478.757 165.513 480.959 167.436 481.839C171.456 483.601 179.059 484.57 179.758 483.424C180.02 482.984 181.069 483.16 182.031 483.865C182.992 484.57 188.41 486.243 194.003 487.564C199.596 488.797 207.112 490.646 210.695 491.616C214.278 492.584 220.046 493.641 223.367 494.081C226.775 494.522 232.281 495.227 235.602 495.667C239.971 496.197 242.942 496.105 245.914 495.314C248.273 494.698 253.604 494.081 257.711 493.993C261.907 493.905 265.751 493.465 266.189 493.113C267.238 492.32 276.238 490.823 286.551 489.678C290.571 489.238 295.115 488.445 296.601 488.005C302.019 486.331 306.476 485.362 310.671 484.922C313.03 484.57 316.176 483.777 317.575 483.072C319.061 482.368 320.896 481.751 321.682 481.751C323.954 481.751 331.558 479.285 341.171 475.498C345.803 473.56 350.085 472.063 350.609 472.063C351.133 472.063 353.755 471.006 356.464 469.773C359.173 468.54 362.232 467.131 363.193 466.691C364.154 466.25 366.951 464.753 369.311 463.256C371.758 461.846 375.079 459.997 376.739 459.116C378.399 458.235 382.157 455.857 385.041 453.744C387.925 451.718 391.159 449.78 392.295 449.516C393.343 449.164 394.217 448.723 394.217 448.371C394.217 448.019 396.052 446.786 398.412 445.641C400.684 444.496 403.568 442.91 404.879 441.942C406.103 441.061 407.763 440.356 408.375 440.356C409.074 440.356 410.385 439.564 411.259 438.595C412.132 437.626 413.618 436.657 414.667 436.305C415.628 435.953 418.862 433.575 421.833 431.02C424.804 428.378 427.426 426.265 427.776 426.265C428.824 426.265 434.417 419.923 434.417 418.69C434.417 418.074 436.864 415.784 439.923 413.582C445.429 409.619 447.701 406.712 448.75 402.309C449.012 400.987 450.497 398.962 451.896 397.905C453.381 396.848 454.517 395.615 454.517 395.263C454.517 394.822 455.916 393.237 457.664 391.74C460.373 389.274 465.004 383.284 469.549 376.151C470.335 374.918 471.035 372.892 471.035 371.659C471.122 370.338 471.471 369.016 471.821 368.576C472.258 368.048 473.482 365.582 474.53 363.027C475.579 360.473 478.201 355.629 480.298 352.283C482.483 349.024 484.056 345.677 483.706 344.972C483.444 344.268 484.143 339.6 485.104 334.58C486.153 329.559 486.765 324.363 486.503 323.13C486.066 321.016 487.901 314.147 489.474 312.209C490.086 311.416 491.309 306.837 492.62 300.319C492.882 299.086 493.319 297.501 493.582 296.796C493.844 296.091 494.281 292.48 494.455 288.869C494.718 285.258 495.242 282 495.766 281.736C496.202 281.383 496.029 280.943 495.242 280.679C494.106 280.238 493.844 278.036 493.844 265.794C493.844 257.868 493.844 250.469 493.844 249.236C493.756 248.003 493.844 245.449 493.931 243.511C493.931 241.574 493.582 236.642 492.97 232.502C492.358 228.362 491.921 222.197 492.009 218.851C492.096 215.416 491.571 208.81 490.873 204.142C490.086 199.475 489.736 194.983 489.998 194.278C490.348 193.397 490.086 192.869 489.299 192.869C487.814 192.869 485.017 184.15 485.192 180.098C485.367 175.607 480.822 159.225 478.987 157.639C478.725 157.375 478.026 155.79 477.502 154.117C472.52 138.879 464.306 115.276 463.606 114.307C463.082 113.691 462.033 111.753 461.246 109.992C460.46 108.318 459.062 106.204 458.013 105.235C457.052 104.355 456.266 103.122 456.266 102.505C456.266 101.184 441.234 86.2115 435.291 81.6318C433.106 79.9581 429.786 77.0517 427.863 75.2022C423.581 70.9749 414.842 64.0168 408.55 59.8775C406.015 58.204 401.558 55.1215 398.587 53.0077C395.616 50.8939 392.295 48.8682 391.071 48.4279C389.935 47.9875 388.974 46.9306 388.974 46.226C388.974 45.4334 388.624 44.993 388.275 45.2572C387.838 45.5214 384.517 44.1122 380.846 42.2627C377.088 40.325 373.593 38.7398 372.981 38.7398C372.457 38.7398 370.971 38.2113 369.748 37.5948C368.524 36.9783 365.728 35.9214 363.455 35.3049C361.183 34.6003 358.823 33.5434 358.299 32.9269C357.775 32.3103 355.94 31.5177 354.105 31.1654C348.948 30.2847 338.287 27.2901 334.878 25.8809C329.547 23.5911 316.963 19.4516 316.439 19.8039C316.176 19.98 314.341 19.7158 312.419 19.2754C310.583 18.8351 305.865 18.2185 302.019 17.9543C298.174 17.6901 291.882 17.1617 288.036 16.7213C284.191 16.1928 279.734 15.9286 277.987 16.0167C276.326 16.1048 269.859 16.4571 263.567 16.8094ZM281.045 20.3323C284.454 20.7727 291.095 21.5654 295.902 22.0057C307.7 23.2387 328.062 27.202 329.111 28.5232C329.635 29.1397 330.509 29.492 331.121 29.2278C333.305 28.5232 352.706 34.336 356.552 36.8902C357.688 37.5948 359.173 38.2994 359.785 38.3874C360.397 38.4755 361.795 39.3563 362.844 40.4131C363.892 41.382 365.99 42.4388 367.388 42.7911C370.884 43.4957 382.245 49.6609 392.12 56.0903C394.917 57.9398 398.761 60.2297 400.51 61.1105C402.345 61.9912 405.054 63.9289 406.627 65.4261C409.511 67.9801 422.445 77.2278 427.95 80.6627C432.058 83.1289 435.641 86.6521 440.273 92.6411C442.37 95.4592 444.642 97.7493 445.254 97.7493C445.778 97.7493 447.963 100.039 449.973 102.77C451.983 105.588 455.042 109.639 456.702 111.841C459.149 115.012 462.383 122.762 462.383 125.404C462.383 126.285 456.702 123.907 456.003 122.674C455.654 122.057 454.78 121.529 454.081 121.529C453.381 121.529 451.721 120.296 450.323 118.799C447.526 115.804 444.38 115.716 445.254 118.623C445.691 120.208 446.477 126.021 448.837 144.604C450.148 155.35 449.973 157.463 445.778 174.814C445.341 176.751 444.904 181.772 444.904 185.999C444.904 190.315 444.555 193.75 444.118 193.75C442.895 193.75 441.671 191.724 441.059 188.465C440.71 186.792 439.748 184.414 438.875 183.269C437.564 181.507 437.039 181.331 435.379 182.3C432.757 183.621 430.572 181.948 431.359 179.042C431.708 177.456 431.446 177.015 430.135 177.015C428.388 177.015 427.426 175.431 427.426 172.26C427.426 168.825 424.368 166.447 419.998 166.447C415.541 166.447 414.492 165.39 416.415 162.571C417.463 160.898 417.551 159.929 416.764 157.904C416.24 156.495 416.065 153.94 416.415 152.179C417.026 148.92 419.736 145.661 421.134 146.542C422.27 147.247 422.27 154.117 421.134 156.495C419.736 159.401 420.784 160.898 424.804 161.603C427.426 162.043 429.349 163.188 431.883 165.831C433.718 167.856 435.291 169.882 435.291 170.498C435.291 172.083 437.564 173.581 439.049 172.964C439.836 172.7 440.797 171.291 441.321 169.882C441.758 168.472 442.545 167.328 442.982 167.328C443.419 167.328 444.03 164.861 444.293 161.779C444.642 158.785 445.079 155.261 445.429 154.028C445.866 152.003 445.604 151.563 443.244 150.77C441.758 150.241 440.535 150.065 440.535 150.329C440.535 150.593 439.836 150.241 439.049 149.536C437.738 148.392 435.029 147.247 432.67 146.718C432.408 146.63 432.233 147.423 432.233 148.304C432.233 151.21 430.223 150.858 428.912 147.775C428.213 146.19 426.815 143.988 425.766 142.931C424.804 141.874 423.93 140.201 423.93 139.232C423.93 138.087 423.493 137.559 422.707 137.911C421.92 138.175 420.348 136.854 418.512 134.388C413.706 127.782 410.559 128.223 406.627 136.061C405.403 138.615 405.141 140.113 405.666 141.17C406.977 143.46 405.84 144.34 402.345 143.812C398.674 143.195 396.839 144.957 396.839 149.008C396.839 151.122 397.188 151.474 399.373 151.474C402.345 151.474 407.763 156.935 406.977 159.136C406.714 159.841 406.889 161.25 407.413 162.219C407.938 163.276 408.375 166.535 408.375 169.617L408.288 175.166L410.909 174.902C413.706 174.55 415.978 172.26 416.065 169.706C416.065 167.944 417.813 167.592 417.813 169.441C417.813 170.058 418.687 170.85 419.648 171.115C421.134 171.467 421.396 171.996 420.784 173.228C419.736 175.783 420.085 179.57 421.571 181.243C423.493 183.357 423.93 190.491 422.183 190.843C421.484 191.019 420.435 190.315 419.998 189.258C419.473 188.201 418.425 186.88 417.463 186.351C416.59 185.823 414.842 184.414 413.618 183.269L411.433 181.067L409.511 183.357C407.239 185.999 404.092 187.849 403.044 187.144C400.684 185.735 390.634 184.414 379.798 184.061C371.67 183.797 371.495 183.885 371.495 185.383C371.495 187.056 373.418 187.849 383.206 190.139C387.488 191.196 391.683 192.605 392.47 193.31C394.13 194.807 398.761 195.071 401.209 193.75C402.607 193.045 403.219 193.574 405.491 197.713C406.977 200.355 408.2 203.614 408.2 204.847C408.2 208.37 405.491 214.007 403.83 214.007C403.044 214.007 401.121 212.333 399.548 210.219C397.276 207.049 395.703 205.992 390.897 204.407C387.663 203.262 384.866 202.117 384.604 201.764C384.342 201.5 383.119 200.707 381.808 200.179C379.972 199.386 379.186 199.386 377.875 200.355C375.778 202.029 374.991 201.94 374.991 200.355C374.991 198.946 370.447 198.594 358.824 198.946C353.056 199.122 345.89 201.148 344.317 203.086C343.792 203.79 342.831 204.318 342.219 204.318C341.607 204.318 340.646 204.935 340.034 205.64C339.248 206.521 339.248 206.961 339.947 206.961C340.472 206.961 340.908 207.401 340.908 207.842C340.908 208.37 340.297 208.722 339.423 208.546C338.461 208.37 337.413 209.515 336.189 211.981C335.141 214.007 333.83 215.68 333.305 215.768C332.694 215.768 332.169 216.121 332.169 216.649C332.169 217.089 332.781 217.265 333.48 217.001C334.966 216.385 335.315 217.97 333.83 218.851C333.305 219.291 333.48 219.908 334.529 220.7C336.014 221.757 336.014 221.845 334.616 221.933C333.743 221.933 333.043 222.462 333.043 223.078C333.043 224.487 323.518 226.601 322.207 225.544C321.682 225.104 318.973 225.104 316.002 225.544C313.118 225.985 307.7 226.249 303.942 226.249C299.922 226.161 296.688 226.513 296.076 227.13C294.591 228.627 293.717 228.275 293.717 226.337C293.717 224.928 293.105 224.575 290.483 224.575C287.163 224.575 279.472 222.374 271.432 219.115C269.073 218.146 265.751 216.825 264.091 216.208C262.518 215.592 260.945 214.799 260.596 214.359C259.809 213.214 253.779 208.722 253.08 208.722C252.73 208.722 251.594 207.842 250.458 206.785C248.536 204.935 246.613 204.142 243.642 204.231C242.505 204.231 242.243 203.79 242.593 202.469C243.03 201.236 242.855 200.972 241.719 201.324C240.758 201.764 240.146 201.324 239.796 200.091C239.272 198.065 234.902 197.008 233.417 198.506C232.718 199.21 232.281 199.122 231.844 198.329C231.144 197.361 224.066 195.335 221.182 195.423C212.792 195.599 204.84 196.656 200.558 198.242L195.402 200.179L199.334 201.5C201.519 202.205 203.442 203.086 203.704 203.35C203.966 203.614 204.927 204.318 205.889 204.847C208.86 206.521 208.335 208.194 202.917 213.39C197.848 218.322 194.178 219.732 192.78 217.442C192.43 216.913 191.644 216.737 190.944 217.001C190.245 217.265 189.721 216.913 189.721 216.208C189.721 215.504 190.245 214.887 190.857 214.799C191.556 214.799 191.644 214.623 190.857 214.359C189.459 213.743 181.681 217.882 177.923 221.14C176.175 222.726 173.815 225.632 172.592 227.746C171.369 229.86 169.796 231.621 169.009 231.621C168.31 231.621 166.999 229.772 166.038 227.394C165.077 225.104 163.94 222.638 163.591 221.933C163.154 221.14 162.542 218.058 162.193 215.064C161.668 210.132 161.843 209.251 163.853 205.64C166.562 201.06 165.601 200.531 160.882 203.79C159.221 204.935 157.037 206.08 156.075 206.432C155.114 206.697 153.541 208.194 152.579 209.691C151.618 211.188 149.433 213.126 147.773 213.919C143.404 215.856 135.364 225.016 135.713 227.482C135.888 228.803 136.499 229.332 137.723 229.243C138.684 229.067 141.918 228.891 144.889 228.715C150.045 228.451 150.482 228.539 153.104 231.269C156.075 234.352 156.163 237.698 153.191 236.378C148.997 234.44 132.917 238.139 132.917 241.046C132.917 241.926 132.392 242.19 131.518 241.838C130.732 241.574 129.683 241.31 129.071 241.31C127.935 241.31 127.236 239.636 123.915 229.419C122.604 225.28 122.604 225.016 124.177 223.431C125.401 222.374 125.925 222.197 125.925 222.99C125.925 223.695 126.362 223.519 126.886 222.55C127.323 221.757 128.459 221.053 129.421 221.053C130.295 221.053 133.091 218.763 135.626 215.768C138.16 212.862 140.519 210.484 140.957 210.484C141.393 210.484 143.054 209.515 144.627 208.282C146.2 207.049 148.297 206.08 149.346 206.08C150.832 206.08 157.735 200.003 172.767 185.118C173.466 184.502 173.991 183.269 173.991 182.564C173.991 180.979 176.437 177.896 177.748 177.896C178.185 177.896 180.02 176.663 181.943 175.254C185.526 172.26 193.479 169.706 194.79 171.027C195.314 171.555 196.975 171.467 198.984 170.939C203.878 169.617 230.62 169.441 231.931 170.763C232.455 171.291 234.116 171.731 235.602 171.731C237.087 171.731 238.748 172.172 239.36 172.788C240.408 173.845 247.225 176.135 250.633 176.487C251.769 176.575 253.342 177.368 254.216 178.161C255.09 178.953 257.799 179.922 260.158 180.186C262.518 180.45 265.053 180.891 265.751 181.155C266.451 181.419 268.636 181.772 270.558 181.86C272.481 182.036 275.627 182.829 277.549 183.621C282.007 185.559 293.717 186.264 293.717 184.59C293.717 183.093 290.833 181.243 286.114 179.658C282.88 178.689 281.832 177.808 282.531 176.751C283.143 175.783 279.822 172.348 275.802 169.882C269.597 166.095 269.073 163.364 275.015 165.566C280.084 167.504 277.987 164.685 271.869 161.25C269.247 159.841 250.895 150.065 232.718 140.553C223.192 135.445 219.434 133.067 219.26 131.746C219.084 130.865 218.385 129.808 217.686 129.632C216.55 129.192 216.55 129.368 217.599 130.601C219.347 132.803 218.473 132.538 209.384 128.046C204.053 125.404 201.344 123.555 201.606 122.85C201.868 122.234 201.693 121.529 201.344 121.265C199.771 120.296 188.76 123.467 186.313 125.581C184.652 126.902 182.73 127.695 180.72 127.695C178.972 127.695 177.311 128.046 177.049 128.575C176.787 129.015 174.165 129.456 171.282 129.456H165.951L166.562 126.814C166.912 125.14 166.737 123.643 166.125 122.85C165.339 121.881 165.251 121.265 166.038 120.296C167.174 118.975 165.688 118.006 162.367 118.006C161.319 118.006 159.658 117.39 158.784 116.685C156.337 114.747 155.551 115.1 156.163 117.566C156.862 120.296 155.464 120.472 153.017 118.006C151.968 116.949 150.744 116.245 150.133 116.421C149.521 116.509 148.21 116.245 147.074 115.892C145.85 115.452 144.627 115.628 143.84 116.245C142.617 117.214 139.034 117.654 124.002 118.623C117.535 119.063 117.186 119.151 117.186 121.177C117.186 123.731 116.05 123.819 112.729 121.441C110.544 119.856 109.932 119.768 108.709 120.736C107.398 121.881 103.64 121.881 101.892 120.736C101.455 120.472 98.3095 120.208 94.901 120.208C86.9484 120.208 86.6863 118.975 93.3281 111.665C96.1246 108.67 99.6204 104.355 100.931 102.153C102.33 99.951 103.99 97.8371 104.689 97.4848C105.301 97.0446 106.874 95.1952 108.01 93.2574C109.233 91.408 110.806 89.8225 111.593 89.8225C112.292 89.8225 114.215 88.8539 115.788 87.6208C118.934 85.2429 127.411 81.1912 132.043 79.9581C142.792 77.0517 149.608 75.5545 153.017 75.3784C160.795 75.0261 163.766 70.1819 157.648 67.8923C153.366 66.3947 149.346 66.5709 148.123 68.2446C146.637 70.3581 144.977 69.9179 145.675 67.54C145.938 66.483 146.637 65.1621 147.074 64.5453C147.511 63.9289 147.686 63.0481 147.336 62.4316C146.986 61.9032 147.424 60.4059 148.385 59.1729C149.346 57.8518 150.395 55.8261 150.657 54.593C151.444 51.1582 154.415 48.604 157.998 47.8994C159.833 47.5471 161.755 46.9306 162.28 46.5783C163.766 45.3453 171.369 43.9361 175.564 44.0242C179.146 44.1122 180.545 42.7031 177.923 41.7342C175.039 40.5893 177.311 37.0663 181.157 36.5379C182.293 36.3617 184.565 35.7452 186.225 35.2168C187.886 34.6884 191.644 33.6315 194.528 33.0149C197.411 32.3984 202.742 30.9892 206.325 30.0204C237.349 21.3892 264.178 17.8662 281.045 20.3323ZM87.473 113.603C87.473 114.043 87.2978 114.483 87.1231 114.483C86.861 114.483 86.4242 114.043 86.1621 113.603C85.8996 113.074 86.0743 112.722 86.5116 112.722C87.0357 112.722 87.473 113.074 87.473 113.603ZM76.5487 135.004C74.8884 141.61 73.4901 147.863 73.4901 148.832C73.4901 149.889 72.8786 151.915 72.0919 153.412C71.3052 154.909 71.0431 156.318 71.4804 156.671C73.1407 157.904 73.4028 186.88 71.7424 188.818C71.1304 189.61 70.8684 190.843 71.2178 191.636C71.4804 192.34 71.2178 194.014 70.6063 195.335C69.9069 196.656 69.5575 198.418 69.7322 199.21C69.9943 200.355 69.1207 201.148 66.5863 202.205C64.6634 202.91 62.4788 204.583 61.6923 205.728C60.9931 206.873 59.6823 207.842 58.8084 207.842C56.4488 207.842 52.254 215.416 51.1179 221.757C50.8557 223.519 49.9818 225.456 49.2827 226.073C47.8844 227.218 46.8357 239.196 48.1466 239.989C48.5835 240.253 48.5835 241.574 48.1466 242.983C46.6609 248.355 50.1566 256.987 56.5362 263.68C58.3714 265.618 59.8571 268.084 60.1192 269.933C60.3814 271.607 60.9931 273.016 61.3427 273.016C62.9158 273.016 62.0418 275.306 59.2453 278.301C51.2927 286.932 44.8257 300.583 44.4761 309.302C44.3888 311.68 43.9518 313.53 43.6022 313.53C42.2914 313.53 38.5335 308.598 38.5335 306.925C38.5335 305.868 38.1839 304.723 37.747 304.194C36.2613 302.785 35.2126 290.455 36.0865 285.258C36.5235 282.616 36.8731 279.093 36.8731 277.42C36.9605 275.747 37.4848 273.016 38.1839 271.431C40.6309 265.442 42.4661 243.687 40.6309 242.102C39.3201 241.046 38.8831 241.662 37.2226 247.211C36.5235 249.5 36.1739 252.23 36.4361 253.287C36.7857 254.433 35.9118 256.987 34.2513 259.893C32.8531 262.535 31.1926 266.499 30.5809 268.877C30.0565 271.167 29.27 273.28 28.8331 273.457C28.4835 273.721 28.3087 274.425 28.5709 275.042C28.7456 275.658 28.4835 278.917 27.9591 282.264C26.823 289.398 26.6482 291.688 26.4735 299.174C26.2987 303.226 25.9491 304.723 25.0752 304.723C22.5409 304.723 22.0165 302.257 21.7543 287.548C21.4922 271.871 22.1039 265.178 24.2887 261.831C24.9878 260.774 25.6869 257.603 25.8617 254.697C26.0365 250.91 26.823 248.268 28.8331 244.744C30.3187 242.014 31.5422 239.196 31.5422 238.403C31.5422 236.73 33.9018 229.155 35.0378 227.042C35.5622 226.161 35.9118 224.664 35.9118 223.783C35.9118 222.814 36.2613 221.845 36.6983 221.493C37.1352 221.229 37.4848 219.908 37.4848 218.586C37.3974 217.265 39.0579 210.924 41.0679 204.583C42.9905 198.329 45.0005 191.196 45.4375 188.818C46.3988 183.797 50.8557 174.285 53.3901 171.731C54.3514 170.763 54.9631 169.97 54.7884 169.97C53.6522 169.97 57.4975 159.225 59.9445 155.438C61.6049 153.06 64.4887 147.775 66.4116 143.812C68.334 139.849 70.4316 136.325 71.0431 135.885C72.4413 135.004 73.6648 133.067 76.5487 126.902C77.7722 124.26 78.9084 122.322 79.1705 122.586C79.433 122.762 78.2095 128.399 76.5487 135.004ZM90.881 126.725C91.9298 127.342 91.9298 127.871 91.1431 128.839C89.4828 130.865 91.1431 131.393 93.1533 129.456C94.8137 127.871 95.513 127.782 99.6204 128.575C103.378 129.279 104.951 129.103 109.146 127.695C114.127 125.933 114.302 125.933 118.934 127.518C123.041 128.927 123.74 129.544 124.002 131.57C124.439 134.828 122.779 136.502 119.283 136.502C116.487 136.502 116.312 136.678 116.312 139.408C116.312 140.993 115.35 143.636 114.302 145.309C111.768 149.096 108.447 158.608 108.01 163.364C107.835 165.302 107.66 167.151 107.66 167.504C107.486 168.913 101.368 171.731 98.4842 171.731C94.6389 171.731 94.4642 172.524 97.9596 174.55C99.4457 175.342 100.581 175.607 100.581 175.166C100.581 174.638 101.455 174.374 102.592 174.55C105.039 174.902 105.912 180.186 103.64 181.067C101.805 181.772 96.3866 179.306 95.6878 177.456C94.9884 175.783 93.066 175.695 92.454 177.368C92.0172 178.601 97.4354 184.414 99.2705 184.59C99.7951 184.678 100.669 184.766 101.368 184.854C101.98 184.942 102.33 185.471 101.98 186.264C101.718 186.968 101.892 187.585 102.33 187.585C102.854 187.585 103.203 188.113 103.203 188.818C103.203 190.05 99.8825 193.31 92.8913 198.946C89.3954 201.764 88.0845 204.318 90.1821 204.318C90.7063 204.318 93.5902 202.293 96.6487 199.915C102.242 195.423 103.203 194.895 103.203 196.304C103.203 197.713 93.6775 206.432 90.9684 207.665C88.3466 208.722 87.6477 209.955 89.2207 210.924C90.3569 211.629 96.9986 208.106 99.7078 205.464C103.028 202.117 102.766 204.407 99.0958 210.308C96.8239 214.007 94.7263 216.208 92.5413 217.265C88.9586 219.027 88.3466 220.524 90.7063 221.845C91.9298 222.462 93.066 221.845 96.0372 219.027C98.1348 217.001 100.581 213.831 101.543 211.981C103.553 208.106 105.213 207.577 104.427 211.1C102.679 218.41 96.7366 224.928 90.9684 225.897C88.8713 226.249 86.5116 225.897 84.0645 224.928C82.0543 224.135 80.1319 223.695 79.8698 224.047C79.5204 224.311 79.7825 224.575 80.3066 224.575C81.8796 224.575 81.5301 227.835 79.9572 228.451C77.3354 229.508 81.1807 232.15 86.5989 233.031C95.9498 234.616 97.1734 234.528 102.067 231.974C106.699 229.508 111.068 225.104 111.068 222.99C111.068 219.732 115.001 223.871 115.7 227.834C116.05 229.419 116.924 231.797 117.798 233.119C121.206 238.315 126.799 256.37 126.799 261.919C126.799 267.115 125.925 268.084 121.818 267.468C117.972 266.851 110.107 264.561 106.699 263.064C105.475 262.623 99.6204 262.007 93.5901 261.831C78.6463 261.39 72.6161 259.717 68.7708 255.049C67.1104 253.023 63.1779 248.708 60.0318 245.361C54.7884 239.636 54.4388 239.108 55.6622 237.434C56.3614 236.465 56.8858 235.144 56.8858 234.44C56.8858 233.119 72.4413 215.151 74.1895 214.447C74.8884 214.183 75.0631 214.447 74.7137 214.975C74.3642 215.592 74.6263 215.856 75.2378 215.592C75.9372 215.416 76.5487 213.654 76.6361 211.276C76.7234 209.163 77.0733 200.707 77.3354 192.517C78.0343 174.902 79.0831 171.731 85.1133 169.089C89.7449 166.975 96.0372 160.634 94.8137 159.401C94.2895 158.872 90.3569 158.432 85.9869 158.432C79.1705 158.344 78.1221 158.168 78.3842 156.847C80.7434 145.925 82.9284 137.823 84.5013 134.124C85.2007 132.627 85.7249 131.041 85.7249 130.601C85.7249 129.544 88.3466 125.933 89.046 125.933C89.3954 125.933 90.1821 126.285 90.881 126.725ZM456.353 129.632C459.586 131.481 459.761 131.481 461.422 129.984C463.169 128.399 465.004 128.663 465.004 130.513C465.004 131.041 465.616 132.186 466.403 133.067C467.102 133.86 468.413 137.911 469.286 141.962C470.161 145.925 471.035 149.889 471.297 150.593C471.471 151.298 472.608 154.469 473.656 157.639C474.793 160.81 475.928 165.566 476.366 168.208C477.239 174.109 478.113 178.072 478.987 179.218C479.337 179.658 479.948 182.036 480.298 184.414C480.56 186.792 481.871 191.548 483.095 194.983C484.318 198.418 485.279 202.645 485.192 204.318C485.104 205.992 485.629 210.924 486.328 215.328C487.027 219.643 487.814 229.067 487.988 236.201C488.251 243.335 488.688 249.589 489.037 250.205C489.387 250.733 489.299 251.438 488.862 251.79C488.338 252.054 487.988 253.464 487.988 254.961C487.988 262.007 486.503 275.042 484.93 280.943C483.968 284.554 482.833 289.486 482.483 291.952C482.046 294.33 481.522 297.325 481.172 298.558C480.91 299.791 480.123 305.339 479.511 310.888C478.113 322.954 474.967 334.227 472.171 337.31C471.035 338.543 469.549 340.657 468.762 342.154C467.976 343.563 466.141 346.558 464.655 348.759C463.169 350.962 462.121 352.811 462.208 352.899C462.557 353.427 453.119 368.665 451.022 370.866C449.186 372.804 443.593 376.062 442.195 376.062C441.496 376.062 439.836 376.679 438.35 377.472C435.641 378.881 436.34 378.881 418.862 376.415C417.201 376.151 415.716 375.27 415.453 374.477C415.104 373.684 413.706 371.747 412.395 370.338C411.084 368.84 409.948 367.431 409.948 367.079C409.948 366.815 408.899 365.317 407.676 363.82C405.666 361.354 405.491 360.562 406.015 356.951C406.365 354.749 407.326 351.842 408.288 350.609C409.161 349.376 410.035 347.438 410.21 346.382C410.385 345.325 410.734 344.092 411.084 343.827C411.433 343.475 411.696 342.242 411.696 341.186C411.696 340.129 412.308 338.543 413.181 337.751C414.754 336.077 417.463 325.861 418.687 316.525C419.473 310.536 418.687 304.106 417.026 302.961C416.677 302.697 414.667 297.589 412.657 291.512C410.647 285.434 408.55 279.798 408.112 279.005C407.676 278.212 407.064 275.835 406.801 273.721C406.452 271.607 405.841 269.669 405.403 269.405C404.966 269.141 404.53 267.644 404.268 266.058C404.092 264.473 403.393 262.359 402.694 261.302C401.733 259.805 401.646 258.132 402.17 254.521C402.519 251.879 402.869 247.651 402.869 245.185C402.957 241.926 403.83 238.932 406.365 233.647C408.288 229.684 409.598 226.249 409.336 226.073C409.161 225.808 409.948 223.871 411.171 221.669C412.395 219.555 413.269 217.618 413.006 217.354C412.744 217.089 413.094 215.768 413.793 214.447C414.492 213.038 414.929 211.629 414.667 211.276C413.706 209.691 413.443 198.153 414.405 198.153C414.929 198.153 417.201 199.122 419.473 200.267C421.658 201.5 426.639 203.966 430.485 205.904L437.564 209.339L441.146 207.929C443.244 207.137 445.341 205.992 445.953 205.375C446.477 204.847 447.351 204.318 447.788 204.318C448.225 204.318 449.274 203.438 450.235 202.293C452.07 200.091 451.721 195.247 449.624 192.781C448.225 191.196 448.05 188.818 449.186 188.113C449.624 187.849 450.235 184.326 450.585 180.363C450.935 176.311 451.721 171.027 452.333 168.649C455.042 158.52 455.217 155.174 453.556 142.314C451.721 128.135 451.721 127.695 452.42 127.695C452.77 127.695 454.517 128.575 456.353 129.632ZM156.949 140.906C156.163 142.314 155.026 143.547 154.24 143.547C152.492 143.547 151.706 145.925 152.929 147.423C154.415 149.184 152.405 153.236 150.045 153.236C148.909 153.236 148.559 153.5 149.259 153.94C151.006 155.085 149.171 160.898 143.666 171.115C142.966 172.524 142.005 176.223 141.568 179.482C140.869 184.15 140.17 185.911 138.16 188.025C136.762 189.434 135.626 191.019 135.626 191.548C135.626 191.988 134.839 192.517 133.878 192.693C131.081 193.133 130.47 188.994 132.742 184.59C135.014 180.01 139.908 167.68 139.908 166.447C139.908 166.006 141.131 163.012 142.53 159.841C144.015 156.671 145.151 153.588 145.151 153.06C145.151 152.531 146.724 149.36 148.647 146.014C150.57 142.579 152.143 139.584 152.143 139.232C152.143 138.968 152.755 137.735 153.541 136.59L154.939 134.652L156.599 136.414C158.173 138.087 158.26 138.439 156.949 140.906ZM216.812 139.672C222.318 142.403 228.086 145.573 229.659 146.718C231.144 147.863 232.718 148.832 232.98 148.832C233.941 148.832 246.089 156.935 246.351 157.728C246.525 158.168 247.312 158.52 248.098 158.608C248.973 158.608 251.332 159.841 253.517 161.163C255.702 162.571 258.673 164.245 260.071 164.95C261.557 165.654 263.217 166.799 263.829 167.592C264.528 168.385 266.888 169.265 269.073 169.617C273.093 170.234 278.86 173.228 278.86 174.726C278.86 175.078 277.987 175.254 276.938 174.99C266.888 172.436 264.266 171.555 261.295 169.617C259.46 168.385 257.711 167.328 257.362 167.328C257.1 167.328 255.789 166.535 254.478 165.654C253.167 164.685 251.07 163.628 249.847 163.364C248.623 163.012 246.7 161.779 245.564 160.634C244.516 159.489 243.205 158.52 242.68 158.52C242.156 158.52 240.233 157.728 238.398 156.759C236.65 155.79 234.465 154.997 233.504 154.997C232.63 154.997 230.97 154.293 229.834 153.324C228.698 152.443 226.862 151.474 225.726 151.122C224.678 150.77 223.367 149.713 222.93 148.744C222.405 147.863 221.095 147.071 220.046 146.982C218.997 146.982 214.977 145.221 211.132 143.019C207.287 140.906 203.092 138.703 201.781 138.175C197.761 136.59 198.722 134.74 203.616 134.74C205.539 134.74 210.345 136.502 216.812 139.672ZM207.549 149.36C220.483 155.966 233.067 161.955 235.514 162.66C240.408 164.069 245.651 166.975 245.651 168.296C245.651 169.617 240.583 169.177 235.077 167.328C232.193 166.359 229.309 165.566 228.785 165.654C228.173 165.742 226.688 165.39 225.289 164.861C221.007 163.012 203.354 163.364 194.091 165.478C186.138 167.239 176.612 171.203 176.612 172.788C176.612 173.14 176.175 173.493 175.651 173.493C174.078 173.493 168.572 178.249 160.795 186.264C156.775 190.403 153.104 193.75 152.579 193.75C151.356 193.75 148.21 197.185 147.511 199.21C146.899 201.06 141.83 204.318 139.733 204.318C137.548 204.318 137.199 203.086 138.247 199.915C138.946 197.889 139.646 197.272 140.782 197.537C141.655 197.713 142.792 197.625 143.404 197.272C144.889 196.392 143.666 194.542 142.093 195.247C139.995 196.04 140.607 193.397 142.792 191.988C143.84 191.283 144.977 190.755 145.239 190.843C145.501 190.931 145.763 189.963 145.763 188.642C145.85 185.559 146.462 182.388 147.598 179.658C148.035 178.425 149.171 175.695 149.958 173.493C150.744 171.291 152.143 167.944 153.017 166.006C153.803 164.069 154.852 161.515 155.201 160.37C157.386 153.324 165.601 139.232 167.611 139.144C168.135 139.144 169.708 139.584 171.019 140.025C172.855 140.729 173.728 140.641 174.777 139.672C175.564 138.968 177.573 138.263 179.234 137.999C180.895 137.823 182.73 137.559 183.166 137.559C183.691 137.471 194.615 142.755 207.549 149.36ZM148.21 139.056C148.472 139.496 147.248 142.403 145.588 145.485C143.84 148.568 142.093 151.65 141.743 152.355C141.306 153.06 140.345 155.966 139.471 158.785C137.81 164.861 130.557 180.715 129.159 181.596C127.848 182.476 127.498 182.476 126.187 181.596C125.401 181.067 125.663 179.834 127.236 176.575C128.372 174.109 129.421 171.467 129.421 170.674C129.421 169.882 129.858 168.913 130.295 168.649C130.819 168.385 131.168 167.504 131.168 166.711C131.168 164.95 142.267 141.874 144.103 139.76C145.588 138.087 147.424 137.823 148.21 139.056ZM136.937 146.366C135.364 149.889 132.567 155.966 130.732 159.841C125.139 172.083 124.789 172.964 123.653 176.047C123.041 177.72 122.692 179.394 122.866 179.658C123.653 180.979 120.944 183.445 119.371 182.917C118.147 182.388 117.972 181.683 118.497 179.129C118.759 177.368 119.371 175.254 119.808 174.461C120.245 173.669 121.031 170.763 121.555 168.032C122.167 165.038 123.128 162.571 124.002 162.043C125.401 161.25 125.401 161.074 124.002 160.282C123.128 159.753 122.08 158.52 121.555 157.639C120.769 156.142 121.031 155.702 123.478 154.645C127.148 152.971 130.295 150.241 130.295 148.656C130.295 147.687 131.431 146.014 135.538 141.082C136.063 140.553 137.199 140.025 138.16 140.025C139.733 140.025 139.646 140.553 136.937 146.366ZM404.704 145.661C404.704 146.63 403.044 146.982 402.519 146.19C402.257 145.749 402.607 145.309 403.306 145.309C404.092 145.309 404.704 145.485 404.704 145.661ZM263.13 160.282C263.13 160.722 262.78 161.163 262.256 161.163C261.819 161.163 261.382 160.722 261.382 160.282C261.382 159.753 261.819 159.401 262.256 159.401C262.78 159.401 263.13 159.753 263.13 160.282ZM135.626 205.375C136.063 207.137 135.8 208.194 134.227 209.603C131.868 211.893 129.945 211.188 130.819 208.458C132.829 201.853 134.402 200.883 135.626 205.375ZM367.126 205.111C367.563 206.08 369.311 207.665 370.971 208.634C372.544 209.691 374.117 211.276 374.379 212.245C374.641 213.302 375.603 214.007 376.652 214.007C377.963 214.007 378.487 214.535 378.487 215.856C378.487 217.265 378.137 217.53 376.564 217.089C375.428 216.737 373.855 215.504 372.981 214.359C372.107 213.214 370.534 212.245 369.66 212.245C368.699 212.245 367.039 211.276 365.903 210.043C364.854 208.899 362.843 207.489 361.62 207.049C358.474 205.816 358.649 204.495 362.145 204.054C363.63 203.878 365.203 203.614 365.553 203.614C365.903 203.526 366.601 204.231 367.126 205.111ZM113.079 206.697C113.778 207.577 114.39 208.634 114.39 209.163C114.39 209.603 115.263 210.572 116.399 211.1C117.798 211.805 118.41 212.774 118.235 214.007C118.06 214.975 118.41 215.768 118.846 215.768C119.371 215.768 119.808 216.561 119.808 217.53C119.808 218.499 119.546 219.291 119.283 219.291C117.623 219.291 115.176 217.001 113.603 213.743C112.554 211.717 111.243 209.779 110.632 209.427C109.495 208.722 109.845 205.199 111.068 205.199C111.418 205.199 112.292 205.904 113.079 206.697ZM391.071 208.282C392.819 209.515 394.654 210.484 395.004 210.484C395.353 210.484 397.363 212.862 399.461 215.856C402.869 220.789 403.044 221.229 401.733 222.726C400.946 223.519 400.072 225.632 399.81 227.306C399.461 228.979 398.325 231.71 397.189 233.383C396.052 235.056 394.654 238.667 393.955 241.31C392.732 246.065 392.732 246.154 389.061 246.418C387.139 246.594 385.478 246.594 385.478 246.33C385.478 246.154 386.09 244.744 386.877 243.159C389.148 238.579 388.712 225.721 386.003 217.089C383.468 209.163 383.206 207.313 384.866 206.697C386.877 205.816 387.838 206.08 391.071 208.282ZM375.341 208.81C375.079 209.251 374.467 209.427 374.03 209.075C373.593 208.81 373.418 208.194 373.768 207.753C374.03 207.313 374.641 207.137 375.079 207.489C375.516 207.753 375.69 208.37 375.341 208.81ZM204.14 215.768C204.403 216.208 204.053 216.649 203.354 216.649C202.568 216.649 201.956 216.208 201.956 215.768C201.956 215.24 202.305 214.887 202.742 214.887C203.267 214.887 203.878 215.24 204.14 215.768ZM187.798 222.021C187.624 222.55 187.099 222.902 186.662 222.902C186.225 222.902 185.701 222.55 185.526 222.021C185.351 221.493 185.876 221.053 186.662 221.053C187.449 221.053 187.973 221.493 187.798 222.021ZM359.698 222.374C370.621 222.374 373.768 223.167 372.719 225.721C372.457 226.513 371.845 227.218 371.408 227.218C370.971 227.218 370.621 227.835 370.621 228.539C370.621 230.124 369.573 230.212 368.174 228.803C367.475 228.099 366.864 228.099 365.903 228.891C365.203 229.508 364.154 229.772 363.63 229.419C363.106 229.067 362.057 229.067 361.271 229.332C360.222 229.772 360.134 230.124 361.008 231.181C362.319 232.767 361.533 235.144 359.872 235.144C359.173 235.144 358.125 234.528 357.513 233.823C356.901 233.119 356.114 232.502 355.678 232.502C355.241 232.502 354.891 233.119 354.891 233.823C354.891 234.528 354.192 235.232 353.405 235.232C352.532 235.321 350.696 235.497 349.385 235.673C347.375 235.849 346.764 235.497 345.977 233.559C345.54 232.238 344.754 230.476 344.317 229.684C343.268 227.658 343.355 226.073 344.404 223.254C345.191 221.229 345.628 220.965 347.288 221.581C348.337 222.021 353.93 222.374 359.698 222.374ZM143.054 241.133C145.675 244.48 146.812 249.148 147.511 258.66C147.948 265.794 147.86 266.851 146.637 266.851C145.151 266.851 144.889 266.234 143.404 258.044C142.879 254.873 142.093 250.733 141.655 248.796C140.257 242.366 139.82 238.667 140.519 238.755C140.869 238.755 142.093 239.812 143.054 241.133ZM394.917 255.578C395.441 256.722 396.052 258.572 396.228 259.805C396.49 261.038 397.538 264.209 398.587 266.851C399.636 269.493 401.034 273.633 401.82 276.098C402.519 278.477 404.355 284.29 405.753 288.869C408.462 297.853 412.308 306.484 414.143 307.629C415.628 308.598 415.453 309.743 413.618 310.183C412.57 310.536 410.997 313.53 408.724 319.783C406.889 324.804 404.53 331.321 403.393 334.227C401.733 338.543 398.674 347.967 397.189 352.899C397.014 353.516 396.052 354.044 395.091 354.044C392.819 354.044 392.819 352.018 395.091 345.237C396.052 342.33 396.926 338.895 396.926 337.486C397.014 334.404 398.674 327.446 399.548 326.213C400.51 324.98 403.83 310.536 403.306 310.007C403.044 309.743 402.432 310.272 401.995 311.152C401.121 312.737 398.937 313.178 398.412 311.945C398.325 311.504 397.101 310.888 395.878 310.623C393.693 310.095 393.606 310.183 392.12 316.877C387.925 335.813 384.342 353.075 383.992 355.981C383.468 359.681 381.72 360.386 380.235 357.567C379.273 355.805 379.798 350.081 381.108 348.319C381.808 347.351 382.594 342.066 383.381 332.466C383.643 329.031 383.905 326.125 383.992 325.861C383.992 325.596 383.73 324.715 383.293 323.747C382.856 322.69 383.031 321.897 383.818 321.457C385.566 320.312 385.653 307.541 383.905 306.572C383.031 306.044 382.769 305.339 383.293 304.194C385.041 300.055 385.129 300.231 377.088 287.901C373.943 283.057 370.796 279.182 369.748 278.917C368.612 278.653 368 277.772 368 276.275C368 275.13 367.738 272.928 367.476 271.519C367.126 269.757 367.388 268.436 368.35 267.468C369.136 266.763 369.748 265.706 369.748 265.178C369.748 264.737 370.534 264.033 371.495 263.768C372.457 263.416 373.156 262.535 373.068 261.831C372.719 259.981 374.205 259.541 375.865 260.95C377.525 262.271 381.458 273.544 380.672 274.778C380.322 275.306 381.108 276.979 382.419 278.477C383.73 280.062 384.517 281.912 384.342 282.88C384.08 283.761 384.255 284.73 384.692 284.994C386.09 285.875 389.148 292.48 388.624 293.714C388.362 294.418 388.799 295.387 389.498 295.915C390.197 296.532 390.721 297.501 390.721 298.029C390.721 298.558 391.77 300.143 392.994 301.552L395.266 304.106L398.15 301.112L401.121 298.117L396.228 286.227C393.518 279.71 390.984 274.161 390.547 274.073C390.197 273.897 389.848 272.84 389.848 271.695C389.848 270.55 389.498 269.405 389.061 269.141C388.624 268.877 388.012 267.555 387.663 266.235C387.401 264.825 386.352 262.887 385.303 261.919L383.556 259.981L385.653 256.811C387.313 254.168 388.187 253.64 390.809 253.64C393.168 253.64 394.13 254.08 394.917 255.578ZM185.351 264.825C185.351 266.587 180.982 272.136 179.671 272.136C179.059 272.136 178.36 272.4 178.185 272.752C177.748 273.809 173.117 276.891 168.66 279.093C166.387 280.238 162.892 282.704 160.795 284.554C158.784 286.403 156.775 287.725 156.337 287.46C155.988 287.196 155.638 285.347 155.638 283.233C155.638 279.358 156.599 278.212 164.028 273.457C169.271 270.11 173.553 266.939 177.486 263.416L181.419 259.893L183.429 261.743C184.477 262.8 185.351 264.209 185.351 264.825ZM349.036 267.555C348.948 271.255 347.201 273.28 344.754 272.752C343.355 272.488 342.831 272.84 342.743 274.249C342.656 275.306 342.394 278.389 342.132 281.295C341.783 284.466 341.957 286.755 342.569 287.372C343.705 288.517 343.88 292.04 342.831 292.745C341.695 293.449 341.607 316.261 342.743 317.582C343.443 318.462 343.443 318.815 342.831 318.815C342.219 318.815 341.957 320.928 342.045 324.539C342.132 327.71 342.481 330.264 342.918 330.264C343.268 330.264 343.53 330.881 343.53 331.673C343.53 332.466 343.093 332.73 342.481 332.378C341.607 331.85 341.607 332.026 342.481 333.083C343.268 334.051 343.355 334.668 342.656 335.108C342.045 335.461 341.957 338.807 342.307 345.237C342.831 353.78 342.743 354.925 341.433 355.453C337.85 356.862 337.587 355.277 337.063 325.596C336.801 310.007 336.539 296.62 336.452 295.915C336.364 295.211 336.539 292.393 336.888 289.75C337.151 287.108 337.587 280.943 337.937 276.098C338.723 264.561 338.986 264.121 344.666 264.473C349.211 264.737 349.211 264.825 349.036 267.555ZM361.271 279.798C361.008 298.91 360.484 306.748 359.261 311.328C357.513 317.582 356.726 324.275 356.202 337.751C355.852 348.055 356.027 351.842 356.988 354.573C357.688 356.598 357.95 358.712 357.513 359.24C356.464 361.09 353.755 359.945 352.094 356.951C350.259 353.868 350.172 350.962 351.046 306.484C351.483 285.171 351.745 281.559 353.318 276.539C354.367 273.368 355.678 270.022 356.29 269.053C356.988 268.084 357.513 266.675 357.513 265.794C357.513 264.737 358.212 264.209 359.523 264.209H361.533L361.271 279.798ZM253.517 267.203C253.342 268.26 255.352 269.493 257.537 269.493C258.585 269.493 261.12 270.462 263.218 271.607C265.315 272.752 269.247 274.337 271.869 275.042C283.58 278.389 313.555 280.414 320.546 278.389C322.469 277.86 324.042 277.86 325.527 278.565C327.538 279.533 327.712 280.15 328.236 288.429C328.586 293.273 328.674 305.075 328.499 314.675C328.324 324.187 328.499 332.026 328.761 332.026C329.723 332.026 329.111 339.864 328.149 340.833C327.363 341.626 327.45 342.418 328.236 344.18C329.81 347.438 327.887 357.215 325.265 359.064C323.168 360.473 322.906 361.97 324.654 361.97C326.663 361.97 325.178 365.494 322.906 366.022C321.507 366.374 321.071 366.991 321.507 367.96C321.77 368.84 322.119 369.016 322.381 368.312C322.556 367.695 323.081 367.255 323.605 367.255C324.129 367.255 324.129 367.784 323.43 368.576C322.818 369.281 322.032 369.633 321.595 369.369C321.158 369.105 320.546 369.545 320.284 370.25C319.934 371.13 318.711 371.659 317.05 371.659C314.516 371.659 314.429 371.747 316.089 372.98C316.963 373.684 317.575 374.301 317.313 374.389C315.478 375.006 308.049 374.917 303.33 374.213C300.184 373.773 293.717 373.156 288.91 372.98C284.104 372.804 276.676 372.363 272.481 372.011C265.315 371.483 264.703 371.571 262.78 373.332C260.858 375.182 260.508 375.27 258.236 374.037C255.702 372.716 250.458 367.255 248.623 364.084C248.098 363.116 246.875 362.059 245.827 361.53C244.778 361.09 243.467 359.505 242.855 358.095C242.243 356.598 234.902 344.708 226.6 331.673C218.211 318.55 211.132 307.189 210.957 306.396C210.52 304.723 220.92 294.77 225.639 292.393C229.309 290.455 231.144 288.429 230.358 287.108C230.096 286.668 230.795 285.875 231.931 285.435C233.067 284.994 234.728 283.497 235.602 282.088C236.475 280.766 238.136 278.653 239.185 277.508C240.321 276.363 241.02 275.13 240.758 274.69C240.496 274.249 240.845 273.633 241.631 273.368C242.331 273.104 243.292 271.695 243.816 270.198C244.516 268.172 245.127 267.644 246.7 267.908C247.836 268.084 248.623 268.701 248.448 269.317C248.273 270.198 248.623 270.198 250.021 269.493C250.982 268.965 251.769 267.908 251.769 267.203C251.769 266.411 252.206 265.97 252.73 266.146C253.255 266.322 253.604 266.763 253.517 267.203ZM147.424 270.902C148.035 283.673 148.035 287.636 147.336 287.989C146.55 288.341 146.2 285.963 145.151 273.457C144.715 269.141 145.064 267.555 146.287 267.996C146.812 268.172 147.424 269.493 147.424 270.902ZM104.514 269.493C112.117 271.167 118.584 273.28 120.681 274.778C121.905 275.57 124.352 276.539 126.187 276.891C127.935 277.244 129.421 277.948 129.421 278.565C129.421 279.974 134.227 285.347 135.451 285.347C135.975 285.347 136.675 286.403 136.937 287.725C137.286 289.134 138.684 292.04 139.995 294.242C143.316 299.615 145.326 307.805 144.977 314.587C144.715 319.872 144.627 320.136 142.442 320.4C139.733 320.752 138.946 318.726 138.772 310.888C138.684 307.893 137.898 304.634 136.762 302.521C135.8 300.583 134.664 297.941 134.402 296.62C133.615 293.361 120.857 280.943 118.322 280.943C117.273 280.943 116.137 280.502 115.875 279.974C115.526 279.446 114.739 279.269 114.04 279.533C113.341 279.798 110.37 279.269 107.398 278.389C97.9596 275.571 89.9196 274.425 87.5604 275.658C86.7737 276.011 84.414 277.068 82.2295 277.86C71.9172 281.823 67.8098 285.875 62.5662 297.06C58.6336 305.427 57.7597 308.774 58.8958 310.623C59.3327 311.328 59.2453 311.769 58.7209 311.769C58.1966 311.769 57.7597 311.328 57.7597 310.888C57.7597 309.655 54.5262 309.743 53.7396 310.976C52.6035 312.914 51.817 309.831 52.6909 306.572C56.5362 291.247 64.314 279.446 72.2666 276.715C74.1016 276.011 77.4228 274.249 79.5204 272.752C81.7049 271.255 84.8513 269.757 86.5116 269.405C91.0557 268.525 100.407 268.525 104.514 269.493ZM211.744 275.658C213.491 277.244 213.491 277.42 212.093 277.42C210.782 277.42 210.695 277.684 211.482 278.653C212.355 279.622 212.268 280.062 211.22 280.679C209.559 281.647 207.199 289.222 208.073 290.719C208.51 291.336 208.598 292.304 208.335 292.921C207.811 294.242 203.442 295.915 200.208 295.915C198.897 295.915 197.586 296.18 197.237 296.532C196.887 296.884 195.314 297.06 193.653 296.884C190.333 296.62 186.488 298.734 185.264 301.552C184.74 302.609 183.516 305.163 182.38 307.277L180.37 311.24L182.555 313.266C183.778 314.411 185.089 315.291 185.439 315.291C185.876 315.291 186.225 315.82 186.225 316.437C186.225 317.141 187.012 318.374 187.973 319.255C188.935 320.136 189.721 321.369 189.721 322.073C189.721 322.69 190.42 323.923 191.294 324.804C192.955 326.653 194.615 329.031 195.838 331.585C196.275 332.554 198.023 335.548 199.771 338.191C201.431 340.833 203.442 344.356 204.14 345.941C204.927 347.527 206.937 350.081 208.598 351.578C210.258 353.075 212.618 356.246 213.841 358.624C214.977 360.914 216.463 362.851 217.162 362.851C217.861 362.851 218.91 363.732 219.696 364.877C220.832 366.638 220.832 367.167 219.696 369.281C218.735 371.306 218.123 371.571 216.113 371.13C209.471 369.633 204.752 367.872 201.781 365.934C198.023 363.38 195.664 363.116 194.091 365.054C192.605 366.903 191.294 366.727 189.371 364.525C188.148 363.027 187.274 362.763 184.827 363.204C182.293 363.732 181.506 363.468 179.671 361.442C176.962 358.536 176.875 357.038 179.322 355.718C181.157 354.749 182.118 355.013 187.449 357.743C188.672 358.36 189.721 358.095 191.731 356.598C193.217 355.541 195.576 354.397 197.062 354.044C201.169 353.251 200.907 351.05 196.1 346.558C193.828 344.444 191.382 342.683 190.857 342.594C190.245 342.594 188.76 341.009 187.449 339.072C186.225 337.222 184.215 335.02 183.079 334.227C181.943 333.523 180.982 332.29 180.982 331.585C180.982 330.881 179.758 329.472 178.36 328.326C173.117 324.451 171.456 309.831 175.389 303.314C184.74 287.812 196.013 276.539 202.393 276.098C203.354 276.098 204.927 275.571 205.889 274.954C208.423 273.544 209.646 273.633 211.744 275.658ZM90.9684 286.668C92.454 288.517 91.6677 310.272 90.0948 312.209C89.1333 313.354 86.6863 313.53 76.0245 313.354L63.0032 313.178V309.831C63.0032 308.069 63.3527 306.396 63.7897 306.044C64.314 305.78 65.5375 303.666 66.6736 301.376C67.8098 299.086 68.946 297.06 69.3828 296.972C69.7322 296.796 69.9943 296.091 69.9943 295.387C69.9943 294.682 70.781 294.154 71.6551 294.154C72.616 294.154 73.4901 293.801 73.6649 293.449C74.1895 292.04 86.0743 285.347 87.9972 285.347C89.046 285.347 90.3569 285.963 90.9684 286.668ZM116.137 287.02C117.361 287.108 118.41 287.901 118.934 289.222C119.371 290.455 120.681 292.04 121.73 292.745C122.866 293.537 124.527 295.915 125.401 298.117C126.362 300.319 127.411 302.08 127.76 302.08C128.197 302.08 128.897 303.754 129.508 305.78C130.033 307.893 130.819 310.623 131.343 311.857C131.78 313.09 132.305 315.38 132.479 316.965L132.829 319.695L126.974 319.255C123.74 318.991 118.934 318.374 116.312 317.846C113.69 317.317 108.971 316.701 105.912 316.348C102.242 315.908 100.145 315.291 99.8825 314.499C99.6204 313.618 99.8825 313.442 100.931 313.794C101.718 314.147 102.33 313.971 102.33 313.618C102.33 313.178 101.718 312.65 101.019 312.297C100.319 312.033 99.7078 311.24 99.7078 310.448C99.7078 309.479 100.232 309.215 101.892 309.655C104.427 310.272 104.689 309.479 102.679 307.277C101.63 306.044 101.455 304.987 102.155 301.288C102.679 298.558 102.679 296.532 102.155 296.268C101.718 296.004 101.805 295.211 102.417 294.506C102.941 293.801 103.728 291.952 103.99 290.455C104.601 287.372 106.699 286.315 111.506 286.755C112.991 286.932 115.001 287.02 116.137 287.02ZM161.231 294.506C164.727 295.563 170.058 299.615 169.184 300.495C169.009 300.671 169.271 302.521 169.708 304.635C170.757 309.303 170.32 310.8 166.475 315.38L163.504 318.991L165.426 322.514C166.562 324.539 168.31 326.653 169.271 327.358C172.243 329.295 172.767 335.372 170.495 340.04C168.397 344.092 167.873 343.916 166.038 338.191C164.552 333.435 163.066 331.761 159.134 330.616C157.299 330.088 155.551 328.767 154.764 327.358C153.366 324.891 153.279 325.068 161.93 308.862C162.717 307.277 163.416 304.634 163.504 302.873V299.702L158.959 300.143C154.852 300.407 154.065 300.231 152.23 298.205C148.035 293.714 152.492 291.864 161.231 294.506ZM367.126 298.998C367.126 299.702 366.776 300.319 366.339 300.319C365.203 300.319 364.417 298.91 365.116 298.205C366.077 297.236 367.126 297.677 367.126 298.998ZM369.398 306.484C369.748 309.391 370.359 312.033 370.709 312.297C371.146 312.561 371.495 313.53 371.495 314.499C371.495 315.38 371.67 316.172 371.845 316.172C372.02 316.172 372.806 316.437 373.593 316.701C374.554 317.053 374.991 316.701 374.991 315.556C374.991 314.587 375.515 313.09 376.214 312.209C379.186 308.069 381.633 315.996 379.273 322.073C378.749 323.394 378.225 327.622 378.137 331.321C378.05 335.02 377.7 338.367 377.351 338.719C377.001 339.072 376.739 339.952 376.739 340.657C376.739 341.273 375.952 342.947 375.079 344.268C374.117 345.589 373.243 348.231 373.068 350.081C372.719 355.101 370.447 355.189 368.524 350.433C367.301 347.351 367.213 346.029 368 342.066C368.524 339.424 369.398 337.134 369.835 336.782C370.272 336.518 370.447 335.989 370.185 335.548C369.923 335.108 370.097 334.58 370.621 334.227C372.194 333.259 374.117 327.534 374.117 324.011C374.117 321.016 373.855 320.576 372.194 320.576C371.059 320.576 369.311 321.545 368.262 322.69C363.718 327.446 359.435 325.244 362.232 319.519C363.019 318.022 363.63 315.115 363.63 313.09C363.63 308.422 366.077 301.2 367.563 301.2C368.437 301.2 368.961 302.961 369.398 306.484ZM205.189 313.53C207.112 314.234 208.335 315.644 209.821 318.815C210.957 321.28 212.18 323.218 212.53 323.218C212.88 323.218 214.802 325.684 216.9 328.591C218.997 331.585 222.318 335.901 224.241 338.279C226.163 340.569 229.135 344.532 230.795 346.998C232.455 349.552 235.165 353.251 236.825 355.189C238.398 357.215 240.146 359.769 240.67 360.826C241.107 361.97 242.243 363.027 243.117 363.292C243.991 363.556 245.477 365.054 246.438 366.638C247.4 368.224 248.71 370.162 249.322 370.954C249.934 371.747 250.021 372.804 249.671 373.156C249.235 373.508 248.71 373.332 248.536 372.716C248.273 372.187 247.836 371.659 247.4 371.659C246.962 371.659 245.564 371.219 244.166 370.69C240.933 369.281 239.185 369.016 232.98 368.665C226.425 368.312 226.251 368.312 224.765 367.343C222.842 366.11 225.115 363.116 228.523 362.499C233.155 361.619 233.679 360.297 230.97 355.981C229.397 353.516 228.173 352.459 227.212 352.723C225.813 353.163 218.56 346.646 218.56 344.884C218.56 344.444 217.599 342.77 216.375 341.186C215.152 339.6 214.191 338.015 214.191 337.662C214.191 337.31 213.317 335.813 212.18 334.316C211.044 332.818 209.297 329.648 208.248 327.358C207.112 324.98 205.451 322.866 204.315 322.426C203.267 321.985 201.257 320.4 199.858 318.902L197.324 316.261L199.422 314.499C201.868 312.385 201.868 312.385 205.189 313.53ZM48.0592 323.835C52.8657 338.719 62.741 352.899 69.9069 355.453C72.0919 356.246 74.5389 357.215 75.3252 357.567C76.1119 358.008 78.2969 358.624 80.1319 358.976C82.0543 359.24 83.9772 359.857 84.414 360.209C85.8122 361.354 93.3281 362.059 104.077 361.97C109.583 361.97 118.06 362.411 122.866 362.851C127.673 363.38 132.742 363.732 134.227 363.732C139.82 363.644 144.015 365.67 140.17 366.638C139.296 366.903 141.219 367.079 144.452 367.167C150.133 367.255 153.017 368.488 153.017 370.954C153.017 372.011 143.753 371.219 139.121 369.721C137.461 369.193 134.053 369.016 131.168 369.369C128.372 369.721 125.838 369.633 125.575 369.193C125.313 368.752 124.09 368.576 122.866 368.84C121.643 369.016 120.157 368.84 119.546 368.312C119.021 367.872 113.428 367.167 107.136 366.903C100.931 366.551 94.3769 365.934 92.7161 365.494C91.0557 365.054 85.5501 364.437 80.4813 364.173C70.3442 363.468 67.9845 362.851 65.1007 359.945C63.9645 358.888 62.2166 357.127 61.0805 356.158C58.4588 353.692 56.0118 350.697 56.0118 349.816C56.0118 349.464 54.0018 346.382 51.6422 343.035C49.2827 339.6 46.6609 335.548 45.8744 333.875C45.0005 332.29 42.4661 329.472 40.1939 327.71C37.9218 325.948 35.9992 324.099 35.9992 323.57C35.8244 321.545 41.2426 318.11 44.7383 318.022C45.6996 317.934 46.7483 319.695 48.0592 323.835ZM58.284 320.312C58.6336 321.193 59.3327 323.13 59.9445 324.539C60.6436 326.037 61.6049 328.15 62.0418 329.383C65.188 336.518 71.2178 343.035 76.1119 344.356C77.7722 344.796 81.5301 345.325 84.414 345.501L89.6575 345.853V353.604L84.9386 353.427C80.656 353.251 76.2866 351.314 73.228 348.407C72.7034 347.879 70.781 346.47 69.1207 345.501C65.0133 342.947 60.8184 337.574 57.1479 330.352C53.7397 323.483 53.3027 318.815 56.0118 318.815C56.9731 318.815 58.0218 319.519 58.284 320.312ZM79.8698 320.752C80.7434 321.193 82.0543 321.369 82.9284 321.104C85.026 320.4 90.0948 323.747 90.0948 325.772C90.0948 326.653 89.4828 328.855 88.7839 330.616C87.9972 332.378 87.6477 334.227 87.9098 334.668C88.1719 335.108 88.1719 336.429 87.8225 337.662C87.2978 339.776 87.0357 339.864 82.2295 339.6C75.3252 339.159 68.6834 335.461 65.9743 330.529C63.8771 326.741 64.2266 325.42 67.0231 326.477C68.5087 327.005 68.5087 326.918 67.1104 324.98C66.3242 323.747 65.6248 322.426 65.6248 321.897C65.6248 319.255 75.5877 318.462 79.8698 320.752ZM111.068 321.897C120.245 322.514 127.673 323.747 128.547 324.627C130.557 326.653 120.944 336.341 113.69 339.688C110.107 341.361 101.805 343.475 98.921 343.475C96.0372 343.475 95.513 342.506 97.3481 340.657C98.047 339.952 98.4842 337.751 98.3969 335.108C98.2222 327.27 101.368 319.959 104.514 321.104C104.951 321.28 107.922 321.633 111.068 321.897ZM138.684 327.005C138.772 328.855 138.422 330.529 138.073 330.793C137.635 331.057 137.286 332.026 137.286 332.994C137.286 334.58 126.537 346.118 125.051 346.118C124.702 346.118 122.954 347.262 121.119 348.759C119.371 350.169 117.535 351.138 117.099 350.962C116.749 350.697 115.962 351.226 115.526 352.194C114.477 354.044 111.68 354.749 102.504 355.453C94.6389 355.982 93.1533 355.189 94.9884 351.49C95.8625 349.729 97.086 348.848 99.0958 348.495C119.021 345.148 130.906 337.751 133.441 327.005C134.315 323.483 134.577 323.13 136.675 323.394C138.247 323.57 138.597 324.275 138.684 327.005ZM211.132 336.429C211.394 336.87 211.044 337.31 210.345 337.31C209.559 337.31 208.947 336.87 208.947 336.429C208.947 335.901 209.297 335.548 209.733 335.548C210.258 335.548 210.87 335.901 211.132 336.429ZM164.902 350.433C167.873 352.459 170.932 355.365 172.243 357.479C173.466 359.416 174.69 361.09 175.126 361.09C175.476 361.09 175.738 361.795 175.738 362.675C175.738 365.053 181.681 369.986 184.827 370.25C192.255 371.042 195.664 373.068 193.391 375.358C192.78 375.974 191.032 375.798 187.711 374.83C185.089 374.037 181.681 373.42 180.195 373.42C178.71 373.42 177.486 373.068 177.486 372.627C177.486 372.276 175.039 371.042 172.068 369.897C169.009 368.84 166.213 367.608 165.775 367.167C165.251 366.727 163.329 366.374 161.319 366.374C158.784 366.374 157.473 365.934 156.775 364.613C156.163 363.732 153.715 362.059 151.268 361.002C148.909 359.945 146.899 358.888 146.899 358.536C146.986 357.655 152.929 351.402 153.715 351.402C154.153 351.402 155.376 350.433 156.512 349.2C157.648 347.967 158.784 346.998 159.134 346.998C159.396 346.998 162.018 348.495 164.902 350.433ZM146.462 361.09C146.2 361.53 145.588 361.97 145.064 361.97C144.627 361.97 144.277 361.53 144.277 361.09C144.277 360.562 144.889 360.209 145.675 360.209C146.375 360.209 146.724 360.562 146.462 361.09ZM369.835 364.613C371.146 364.613 372.37 365.23 372.719 365.934C372.981 366.638 373.943 367.255 374.816 367.255C375.69 367.255 377.176 368.048 378.05 369.016C379.361 370.514 379.536 371.747 379.099 376.591C378.749 379.85 378.312 382.668 378.05 382.932C377.788 383.197 375.69 382.316 373.331 381.083C370.971 379.762 368 378.705 366.689 378.705C363.193 378.705 361.97 376.415 361.883 370.25C361.883 364.173 362.319 363.38 365.378 364.173C366.601 364.437 368.612 364.701 369.835 364.613ZM351.92 367.784C354.105 369.545 355.59 371.219 355.328 371.483C355.066 371.747 355.328 372.363 355.765 372.98C356.988 374.477 357.251 382.404 356.114 382.844C355.503 383.02 354.017 382.228 352.706 380.906C349.997 378.441 346.501 378.088 343.88 380.026C341.607 381.699 336.626 381.699 334.616 379.85C331.645 377.119 333.655 364.525 336.888 365.758C337.587 366.022 339.86 366.551 342.132 366.815C345.365 367.343 346.239 367.167 346.676 366.022C347.375 364.084 347.463 364.173 351.92 367.784ZM395.091 366.374C395.878 366.903 396.752 366.815 397.538 366.11C398.499 365.318 399.373 365.934 401.908 369.016C403.743 371.219 406.015 373.949 407.151 375.094C409.686 377.648 408.899 378.617 403.656 379.673C396.14 381.083 394.741 380.819 390.11 376.238C385.915 372.187 383.73 369.193 383.73 367.343C383.73 366.903 385.391 366.286 387.488 366.11C389.498 365.934 391.77 365.758 392.47 365.67C393.168 365.582 394.392 365.846 395.091 366.374ZM90.9684 369.985C97.4354 370.426 105.126 371.042 108.01 371.219C119.633 371.923 139.384 374.301 140.257 375.182C140.869 375.798 140.782 376.415 140.083 377.119C139.121 378.088 139.208 378.088 101.455 374.741C94.0269 374.125 86.9484 373.597 85.7249 373.508C80.6561 373.508 77.8596 372.451 77.8596 370.778C77.8596 369.809 78.1221 369.016 78.5589 369.016C78.9084 369.016 84.5013 369.457 90.9684 369.985ZM196.712 376.151C196.712 376.591 196.363 376.943 195.838 376.943C195.402 376.943 194.964 376.327 194.964 375.534C194.964 374.83 195.402 374.477 195.838 374.741C196.363 375.006 196.712 375.622 196.712 376.151ZM170.233 376.943C174.602 377.295 178.622 377.824 178.972 378.088C179.758 378.617 191.382 379.586 200.208 380.026C202.83 380.114 206.675 380.642 208.685 381.259C210.695 381.787 215.502 382.316 219.347 382.316C223.28 382.316 226.6 382.756 226.95 383.197C227.3 383.725 227.911 383.725 228.698 383.02C229.571 382.316 230.271 382.316 231.057 382.932C231.669 383.461 234.291 384.077 236.913 384.341C239.534 384.694 245.302 385.222 249.584 385.751C253.954 386.191 266.276 387.6 277.113 388.833C287.949 390.066 302.281 391.652 309.01 392.356C315.74 393.061 324.916 394.03 329.46 394.558C345.016 396.231 361.533 397.112 395.091 397.729C410.21 397.993 422.969 398.522 423.406 398.962C424.455 400.019 423.319 402.573 422.008 402.397C421.396 402.309 420.173 402.485 419.299 402.925C418.425 403.277 415.453 403.365 412.657 403.101C409.861 402.925 406.889 403.101 406.103 403.541C404.966 404.158 404.355 404.158 403.918 403.541C403.393 402.661 393.343 402.044 367.563 401.163C342.481 400.371 334.354 399.755 315.565 397.641C303.854 396.408 288.998 394.822 264.878 392.268C249.497 390.683 230.183 388.569 220.745 387.512C201.519 385.222 189.109 383.901 179.234 383.108C159.92 381.523 154.764 380.202 154.764 376.767C154.764 375.094 155.114 375.006 158.522 375.622C160.532 375.886 165.775 376.503 170.233 376.943ZM291.27 379.585C295.552 380.114 303.592 380.906 309.185 381.435C329.023 383.373 330.421 383.549 330.421 384.43C330.421 385.927 311.545 385.927 298.873 384.518C292.318 383.725 283.667 383.108 279.56 383.108C274.054 383.108 271.782 382.756 270.995 381.787C270.471 381.083 270.209 380.114 270.558 379.585C271.257 378.441 281.395 378.441 291.27 379.585ZM84.414 380.466C84.7639 380.995 86.7737 381.347 89.046 381.347C91.3178 381.347 100.407 382.14 109.146 383.108C117.972 383.989 125.75 384.518 126.45 384.254C128.634 383.461 148.997 385.839 150.307 387.072C152.667 389.45 150.482 390.154 142.704 389.714C138.51 389.45 129.246 389.009 121.992 388.745C107.31 388.129 105.912 388.041 104.077 387.248C103.378 386.895 99.6204 386.455 95.7751 386.191C82.0543 385.398 77.0733 384.43 75.2378 382.404C74.2769 381.435 73.4901 380.378 73.4901 380.29C73.4901 379.497 83.9772 379.762 84.414 380.466ZM439.661 380.906C439.661 381.611 439.311 382.228 438.787 382.228C438.35 382.228 437.913 381.611 437.913 380.906C437.913 380.202 438.35 379.585 438.787 379.585C439.311 379.585 439.661 380.202 439.661 380.906ZM439.049 383.197C441.584 383.197 440.622 385.134 436.078 389.185L431.708 393.061L414.055 392.444C369.748 391.123 361.795 390.771 361.358 390.066C361.096 389.626 359.872 389.274 358.736 389.274C357.338 389.274 356.639 388.833 356.901 388.129C357.163 387.336 360.834 387.072 371.146 386.984C390.984 386.808 432.058 383.989 433.281 382.756C433.631 382.404 434.767 382.404 435.728 382.668C436.69 383.02 438.175 383.284 439.049 383.197ZM91.2305 396.32C93.9396 398.433 96.2119 400.459 96.2119 400.811C96.2119 402.397 104.077 406.888 106.699 406.888C109.408 406.888 112.991 408.474 117.099 411.468C118.235 412.349 119.895 413.053 120.769 413.053C121.643 413.053 123.128 414.198 124.177 415.696L126.012 418.338H123.653C122.342 418.338 120.769 419.042 120.07 419.835C119.196 420.98 118.672 421.156 118.41 420.276C118.147 419.747 117.099 419.219 116.05 419.219C110.37 419.131 96.9113 412.701 95.513 409.355C95.3378 409.002 94.7263 408.65 94.1148 408.65C93.1533 408.65 84.9386 400.547 82.3169 396.936C81.2681 395.615 81.3554 395.174 82.6663 393.589C84.5887 391.476 84.9386 391.563 91.2305 396.32ZM147.773 393.677C153.803 394.206 163.241 394.646 168.747 394.646C174.253 394.646 180.37 394.998 182.293 395.527C188.323 397.112 200.558 399.226 217.773 401.604C220.92 402.044 224.678 402.661 226.076 403.013C227.474 403.277 230.009 403.718 231.669 403.982C233.329 404.246 235.252 404.863 235.776 405.303C236.388 405.831 237.524 405.92 238.311 405.655C239.097 405.303 240.758 405.744 241.894 406.536C243.117 407.241 244.603 407.681 245.215 407.417C246.263 407.065 258.585 409.883 263.13 411.468C266.625 412.79 277.724 415.696 279.035 415.696C279.909 415.696 282.269 416.224 284.278 416.929C292.231 419.483 308.399 424.503 314.691 426.353C318.274 427.409 323.168 428.995 325.527 429.876C327.887 430.844 330.771 431.549 331.907 431.549C333.043 431.549 335.228 432.166 336.714 432.958C338.199 433.751 341.783 434.808 344.754 435.424C349.385 436.393 350.085 436.834 350.085 438.595C350.085 440.445 349.648 440.621 344.841 440.885C339.772 441.149 331.47 440.004 328.761 438.595C323.343 435.953 317.662 434.191 314.167 434.191C312.506 434.191 311.195 433.927 311.195 433.487C311.195 432.43 306.738 430.669 304.116 430.669C302.806 430.669 301.407 430.228 301.058 429.699C300.796 429.171 299.66 428.995 298.698 429.259C297.737 429.523 294.94 428.731 292.494 427.585C290.047 426.441 286.114 425.031 283.754 424.503C281.395 423.974 278.511 422.742 277.287 421.861C275.976 420.804 273.792 420.099 271.607 420.099C268.286 420.099 262.868 418.955 259.198 417.457C258.236 417.017 255.265 416.224 252.643 415.608C250.021 415.079 246.525 414.022 244.953 413.318C243.38 412.613 239.272 411.468 235.776 410.763C232.368 410.059 228.523 409.002 227.3 408.298C224.503 406.8 206.762 405.567 205.889 406.8C205.102 408.121 203.704 408.033 203.704 406.536C203.704 403.718 141.393 403.189 137.723 406.008C136.237 407.241 125.051 406.272 122.866 404.774C121.643 403.982 120.157 403.365 119.458 403.365C118.759 403.365 117.099 402.837 115.7 402.133C112.03 400.283 109.146 399.138 106.612 398.609C103.203 397.905 100.145 395.087 100.844 393.413C101.368 392.092 103.203 391.916 119.108 392.356C128.897 392.533 141.743 393.149 147.773 393.677ZM207.986 393.589C209.471 394.382 212.268 394.558 218.036 394.206C234.728 392.973 236.65 393.501 233.417 397.905C230.882 401.34 229.135 401.692 224.066 400.195C221.881 399.49 218.385 398.962 216.463 398.962C214.453 398.962 209.559 398.345 205.451 397.552C198.285 396.144 194.528 394.294 195.489 392.62C196.188 391.563 205.451 392.268 207.986 393.589ZM219.434 392.268C219.434 392.533 219.084 392.973 218.56 393.237C218.123 393.501 217.686 393.325 217.686 392.885C217.686 392.356 218.123 391.916 218.56 391.916C219.084 391.916 219.434 392.092 219.434 392.268ZM251.42 396.408C251.682 396.936 250.196 399.138 248.011 401.34C244.516 404.951 243.816 405.303 241.195 404.774C236.038 403.806 235.34 402.925 237.786 400.371C238.922 399.05 240.321 398.081 240.933 398.081C241.457 398.081 242.418 397.465 243.03 396.76C244.341 395.263 250.458 394.998 251.42 396.408ZM263.742 396.936C264.091 397.817 263.567 398.874 262.169 399.93C261.033 400.811 259.022 402.397 257.711 403.365C255.177 405.303 252.206 405.479 252.206 403.63C252.206 402.22 260.333 395.439 261.907 395.439C262.605 395.439 263.392 396.055 263.742 396.936ZM278.86 399.755C278.86 400.987 273.005 405.127 271.258 405.127C270.383 405.127 268.548 405.92 267.062 406.888C262.343 410.059 258.149 408.385 262.081 404.863C266.8 400.547 269.772 399.138 274.316 399.05C276.763 398.962 278.86 399.314 278.86 399.755ZM295.378 400.195C296.251 401.163 295.989 401.868 294.416 403.365C293.367 404.334 291.445 405.391 290.221 405.744C288.998 406.008 285.24 407.593 281.745 409.355C276.414 411.997 275.19 412.261 274.054 411.292C272.83 410.235 272.918 409.883 275.103 407.593C277.549 405.039 284.191 401.076 288.474 399.755C291.969 398.698 294.329 398.874 295.378 400.195ZM316.002 400.723C316.788 401.956 314.079 406.008 312.594 406.008C311.982 406.008 310.933 406.536 310.409 407.241C309.885 407.857 308.049 408.65 306.389 408.914C304.728 409.178 302.194 410.235 300.796 411.204C299.398 412.261 297.387 413.053 296.251 413.053C295.203 413.053 293.629 413.582 292.93 414.287C290.571 416.312 287.949 416.753 286.726 415.255C285.153 413.318 287.512 410.852 292.494 409.442C294.591 408.826 297.912 406.8 299.922 404.951C301.932 403.101 304.204 401.516 304.99 401.428C305.777 401.428 306.826 401.252 307.438 401.252C307.962 401.163 308.748 400.811 309.098 400.459C310.059 399.49 315.39 399.755 316.002 400.723ZM354.716 407.945C353.58 409.178 351.133 410.852 349.211 411.82C346.152 413.23 338.723 417.898 337.413 419.219C336.014 420.628 327.8 422.654 325.003 422.213C323.168 421.861 321.683 422.037 321.333 422.653C320.459 423.974 317.313 423.887 317.313 422.477C317.313 420.54 319.323 419.219 322.207 419.219C323.78 419.219 325.265 418.866 325.527 418.426C325.79 417.985 328.062 417.017 330.509 416.136C333.043 415.344 336.276 413.758 337.763 412.613C343.006 408.65 349.997 405.039 351.483 405.391C352.357 405.655 353.231 405.215 353.58 404.422C354.017 403.19 354.192 403.19 355.415 404.422C356.639 405.655 356.552 406.008 354.716 407.945ZM333.393 405.744C333.655 406.36 333.305 407.417 332.606 408.122C330.858 409.795 321.158 414.374 316.701 415.608C314.778 416.136 311.72 417.545 309.972 418.778C307.438 420.54 306.389 420.804 304.99 420.099C301.932 418.426 303.592 413.934 307.525 413.494C309.71 413.318 313.555 411.556 314.254 410.499C314.516 409.971 315.39 409.531 316.176 409.531C316.876 409.531 318.798 408.386 320.459 406.976C322.906 404.687 323.954 404.422 328.149 404.51C331.208 404.598 333.131 405.039 333.393 405.744ZM408.112 408.738C409.598 409.266 410.821 410.059 410.821 410.499C410.821 410.94 411.696 411.204 412.832 411.028C415.453 410.763 415.366 413.406 412.744 413.758C411.608 413.934 408.288 416.312 405.316 419.131C402.345 421.861 398.063 425.472 395.79 427.057C393.081 428.995 391.858 430.404 392.208 431.285C392.644 432.342 392.295 432.518 390.984 432.077C389.76 431.637 388.362 432.166 386.527 433.751C385.128 434.984 383.556 435.953 383.031 435.953C382.157 435.953 379.623 437.098 374.816 439.564C371.845 441.149 362.756 447.402 360.659 449.34C357.338 452.423 356.027 450.485 357.251 444.584C358.037 440.797 357.163 435.16 355.503 434.103C355.153 433.839 354.979 432.166 355.328 430.492C356.027 426.793 366.514 415.344 371.758 412.613C373.505 411.644 374.991 410.411 374.991 409.795C374.991 409.266 375.69 408.562 376.564 408.385C379.798 407.505 405.403 407.769 408.112 408.738ZM183.604 411.38C185.788 411.909 188.148 412.79 188.847 413.406C189.546 414.022 191.119 414.815 192.343 415.079C199.334 416.665 202.568 417.721 206.151 419.659C209.471 421.509 211.482 421.861 217.249 421.861C221.357 421.949 224.765 422.389 225.639 423.006C227.736 424.679 234.465 434.896 237.349 440.797C238.748 443.703 240.933 447.843 242.156 450.045C243.467 452.246 244.778 455.065 245.04 456.386C245.389 457.619 246.525 459.821 247.662 461.23C248.71 462.551 250.196 464.753 250.895 466.162C252.818 470.037 251.507 470.566 239.796 470.037C229.397 469.509 225.027 468.892 215.502 466.426C203.529 463.432 200.558 462.463 198.023 461.23C196.625 460.525 193.653 459.116 191.469 458.148C186.75 455.945 181.593 450.661 180.195 446.61C178.972 442.823 178.972 433.751 180.108 431.461C180.632 430.492 181.943 429.788 183.166 429.788C184.477 429.788 185.876 428.907 186.662 427.674C187.973 425.648 187.973 425.296 186.662 423.27C185.876 422.125 183.778 420.276 182.031 419.395C174.34 415.255 171.369 413.494 171.369 412.966C171.369 412.349 176.35 410.587 178.36 410.499C179.059 410.499 181.419 410.852 183.604 411.38ZM364.941 412.613C364.941 413.582 364.154 414.727 363.193 415.255C362.232 415.696 358.649 418.426 355.328 421.156C348.424 426.705 342.481 428.995 339.161 427.145C336.801 425.824 337.325 424.239 340.559 423.27C346.676 421.42 348.599 420.364 352.27 417.017C357.863 411.909 360.31 410.411 362.756 410.676C364.242 410.763 364.941 411.38 364.941 412.613ZM235.34 416.577C236.913 417.545 238.922 418.338 239.884 418.338C243.03 418.338 250.633 423.534 252.118 426.705C252.993 428.378 253.429 430.14 253.08 430.58C252.556 431.549 253.604 434.279 256.488 439.035C257.711 440.973 259.896 444.936 261.469 447.843C262.955 450.749 265.751 455.769 267.587 459.028C271.17 465.193 271.782 467.659 269.772 467.659C268.198 467.659 266.538 465.281 260.508 454.448C257.887 449.869 254.565 444.32 252.993 442.118C251.507 439.916 248.885 435.424 247.312 432.077C244.253 425.824 241.894 423.974 238.136 424.855C236.825 425.208 235.077 424.151 231.32 420.716C228.523 418.162 226.6 415.784 226.95 415.431C228.173 414.198 232.543 414.815 235.34 416.577ZM348.774 418.338C348.774 418.778 348.337 419.219 347.812 419.219C347.376 419.219 347.201 418.778 347.463 418.338C347.725 417.809 348.162 417.457 348.424 417.457C348.599 417.457 348.774 417.809 348.774 418.338ZM257.013 424.591C257.013 425.12 257.711 425.296 258.585 425.031C261.907 424.063 266.451 431.461 265.577 436.393C265.227 437.802 265.927 439.476 267.5 441.413C270.471 445.024 273.617 450.573 273.617 452.07C273.617 452.687 275.015 455.945 276.676 459.204C279.822 465.369 279.909 466.778 277.2 466.778C276.064 466.778 274.491 464.401 271.694 458.148C269.509 453.48 265.402 446.081 262.431 441.766C259.547 437.45 257.362 433.399 257.624 432.782C257.887 432.077 257.187 430.404 256.226 428.995C254.041 426.001 253.867 423.623 255.702 423.623C256.401 423.623 257.013 424.063 257.013 424.591ZM334.354 426.265C334.616 426.705 334.267 427.145 333.567 427.145C332.781 427.145 332.169 426.705 332.169 426.265C332.169 425.736 332.519 425.384 332.956 425.384C333.48 425.384 334.092 425.736 334.354 426.265ZM350.085 428.026C349.823 428.466 348.774 428.907 347.812 428.907C346.851 428.907 346.327 428.466 346.589 428.026C346.851 427.498 347.9 427.145 348.861 427.145C349.823 427.145 350.347 427.498 350.085 428.026ZM272.393 430.844C273.18 432.43 274.403 434.103 275.015 434.455C275.714 434.808 276.238 435.777 276.238 436.481C276.238 437.978 288.386 459.469 291.62 463.784C293.717 466.514 293.717 466.691 292.231 467.483C289.872 468.716 287.075 467.219 286.289 464.401C286.027 463.08 284.191 459.645 282.269 456.738C280.434 453.92 278.86 451.278 278.86 450.925C278.86 450.573 277.637 448.723 276.151 446.874C272.83 442.734 267.237 430.844 267.849 429.171C268.636 427.145 270.908 427.938 272.393 430.844ZM288.91 436.834C289.959 439.299 291.358 441.766 291.969 442.118C292.581 442.47 292.843 443.439 292.581 444.232C292.231 445.024 292.406 445.641 292.93 445.641C293.367 445.641 294.329 446.962 295.028 448.635C295.727 450.309 296.688 451.894 297.125 452.158C297.475 452.423 298.087 453.832 298.349 455.329C298.698 456.826 300.358 459.38 302.019 461.142C304.554 463.696 304.99 464.577 304.116 465.545C303.592 466.25 302.631 466.778 302.107 466.778C300.97 466.778 296.688 462.463 294.329 458.852C293.455 457.619 291.27 454.448 289.347 451.806C287.425 449.164 285.852 446.61 285.852 446.169C285.852 445.817 284.454 443.527 282.706 441.149C281.045 438.771 279.822 436.481 280.084 436.041C280.346 435.601 279.996 435.072 279.385 434.808C278.336 434.367 277.987 430.933 278.773 429.171C278.86 429.171 280.696 429.788 282.88 430.669C286.463 431.99 287.163 432.694 288.91 436.834ZM247.4 438.155C249.06 441.59 252.643 448.988 255.265 454.713C257.887 460.349 260.596 465.017 261.207 465.017C261.731 465.017 262.256 465.545 262.256 466.25C262.256 466.955 262.518 468.1 262.78 468.892C263.13 469.861 262.606 470.213 260.596 470.125C257.711 470.037 255.789 467.924 254.74 463.608C254.391 462.199 253.167 459.556 252.031 457.795C250.982 455.945 250.021 454.096 250.021 453.567C250.021 453.039 248.098 448.547 245.651 443.615C240.933 434.015 240.321 431.197 242.855 431.725C243.729 431.901 245.651 434.544 247.4 438.155ZM296.688 434.279C298.873 435.601 300.096 437.098 300.708 439.299C301.145 441.149 303.33 445.465 305.515 448.988C309.535 455.505 310.234 459.028 307.612 459.556C305.777 459.909 300.009 453.832 299.398 450.837C299.048 449.516 298.261 447.931 297.562 447.314C296.863 446.786 296.338 445.817 296.338 445.201C296.338 444.584 295.814 443.615 295.115 443.087C292.843 441.149 291.27 432.43 293.28 432.43C293.455 432.43 295.028 433.223 296.688 434.279ZM313.03 447.226C320.022 456.826 322.294 461.23 321.071 462.463C319.76 463.784 315.565 461.494 312.506 457.795C309.885 454.624 304.204 443.087 304.204 440.885C304.204 440.092 304.903 439.476 305.865 439.476C306.913 439.476 309.447 442.206 313.03 447.226ZM318.886 444.056C319.585 444.76 320.196 444.76 321.245 443.88C323.168 442.294 326.926 444.936 327.013 448.107C327.188 452.687 327.363 453.039 329.111 454.008C332.868 455.945 333.218 456.298 332.082 457.619C331.558 458.324 329.81 458.852 328.236 458.852C325.965 458.852 325.003 458.235 323.518 455.945C322.556 454.448 320.808 451.718 319.672 450.045C316.176 444.936 315.652 440.797 318.886 444.056ZM339.335 449.34C343.093 453.744 343.355 456.474 339.947 456.914C338.287 457.091 336.539 456.034 332.781 452.334C326.314 446.081 326.314 444.32 332.956 445.201C335.141 445.465 336.888 446.61 339.335 449.34ZM353.58 448.371C354.979 449.692 352.619 451.19 348.162 451.542C343.618 451.982 341.083 450.485 342.045 447.931C342.481 446.962 343.705 446.786 347.638 447.138C350.434 447.402 353.056 447.931 353.58 448.371Z" fill="#9E9E9E"/>
<path d="M265.765 45.0244C262.759 48.6276 260.371 51.9671 260.371 52.4065C260.371 52.8459 259.133 54.0763 257.63 55.1309C254.536 57.4158 254.712 57.9431 259.045 58.2068C261.786 58.3826 262.67 57.9431 265.057 54.8672C272.219 46.0789 272.485 45.9032 273.988 47.1336C274.784 47.7487 275.402 48.8033 275.402 49.3306C275.402 49.9458 277.171 52.1429 279.382 54.2521C282.83 57.5916 283.36 57.8553 283.36 56.2734C283.36 55.2188 282.388 53.1974 281.15 51.7913C279.912 50.2973 278.939 48.5397 278.939 47.8366C278.939 46.2547 275.491 40.103 274.076 39.1362C272.219 37.7301 270.982 38.609 265.765 45.0244Z" fill="#9E9E9E"/>
<path d="M205.956 48.953C206.134 54.1063 206.49 58.5608 206.668 58.7355C206.846 58.9102 207.558 58.8229 208.358 58.5608C209.426 58.1241 209.693 56.4646 209.693 50.9619V43.9745H220.37V53.4949C220.37 60.8317 220.637 63.1026 221.616 63.452C222.595 63.8887 223.04 62.3166 223.485 55.9405C223.84 51.486 223.929 46.1581 223.751 43.9745L223.485 40.0441L205.6 39.52L205.956 48.953Z" fill="#9E9E9E"/>
<path d="M238.202 43.6364C235.859 45.052 233.343 47.2641 232.649 48.5913C231.521 50.8917 231.608 51.1572 234.992 54.2539C236.901 56.0235 239.504 59.1203 240.718 61.1554C242.02 63.2789 243.408 64.96 243.842 64.96C245.924 64.96 245.577 62.0401 243.061 58.0586C241.586 55.6696 240.371 53.4577 240.371 53.1037C240.371 52.6613 241.933 52.5728 243.842 52.7498C246.271 52.9268 247.399 52.6613 247.746 51.7765C248.267 50.3608 246.792 49.0336 244.536 49.0336C242.54 49.0336 241.586 47.2641 243.061 46.2908C243.755 45.8484 245.664 45.3175 247.312 44.9636C251.997 44.1673 252.518 43.9018 251.997 42.3977C251.043 40.0087 243.234 40.7165 238.202 43.6364Z" fill="#9E9E9E"/>
<path d="M328.516 42.0479C328.169 43.611 327.995 45.5214 327.822 48.2135L327.735 51.166L324.527 49.1687C322.706 48.0398 320.538 46.8241 319.758 46.303C318.977 45.782 318.023 45.6951 317.677 46.0425C316.723 46.9977 318.631 49.9502 323.833 55.7685C327.995 60.2842 328.603 61.4131 328.603 64.6259C328.603 66.6237 328.949 68.4472 329.383 68.7073C330.683 69.4893 332.938 65.1472 332.938 61.9341C332.938 59.4157 333.372 58.8079 335.886 57.5921C339.615 55.8553 347.853 48.474 347.159 47.4319C345.945 45.4346 339.875 47.6924 335.54 51.687C332.071 54.9001 331.638 54.5528 330.77 46.3898C330.423 43.6978 329.817 41.44 329.383 41.44C328.949 41.44 328.516 41.7005 328.516 42.0479Z" fill="#9E9E9E"/>
<path d="M178.499 47.7897C177.539 49.4604 175.967 51.0431 175.181 51.219C174.395 51.4828 175.006 51.6587 176.578 51.7466C179.111 51.8345 180.77 53.5932 178.237 53.5932C177.626 53.5932 176.753 54.4725 176.316 55.5277C175.792 56.5828 174.482 57.7259 173.26 57.9897C171.426 58.4294 171.339 58.6052 172.561 59.1328C173.784 59.5725 173.959 60.3638 173.609 62.5621C172.823 67.1344 171.339 70.3878 170.291 70.0365C169.243 69.5968 169.243 69.5089 170.291 65.5518C170.728 63.7932 170.64 63.1777 169.941 63.6173C169.33 63.969 168.195 63.7932 167.235 63.3535C166.099 62.6501 165.313 62.738 164.702 63.5294C163.305 65.2 163.218 69.6846 164.527 72.0587C165.226 73.2899 165.837 75.0486 165.925 76.0158C166.099 77.9502 163.916 80.8518 162.344 80.8518C160.598 80.8518 156.668 84.3693 156.668 85.9518C156.668 86.7433 157.629 89.3814 158.851 91.8433C160.947 95.9761 161.471 97.647 162.519 103.011C162.955 105.209 162.694 105.472 160.51 105.472C158.415 105.472 157.716 104.857 156.319 101.955C155.184 99.5814 154.136 98.4381 153.175 98.6142C152.389 98.7899 150.992 98.2624 150.119 97.5587C149.246 96.8555 147.325 96.4158 145.578 96.5915C143.832 96.6793 142.697 96.5037 142.959 96.064C144.268 94.0417 137.108 95.5365 128.899 98.9656C124.009 101.076 118.944 103.098 117.547 103.362C113.792 104.33 108.815 108.023 108.64 109.957C108.64 110.221 114.578 110.309 121.826 110.133C132.654 109.869 135.012 110.045 134.575 111.012C134.051 112.419 138.679 114.705 140.251 113.65C140.863 113.298 143.919 112.859 147.063 112.771C155.184 112.595 162.781 111.54 162.781 110.661C162.781 110.221 163.218 109.869 163.654 109.869C164.178 109.869 164.527 110.661 164.527 111.628C164.527 112.595 164.964 113.387 165.401 113.387C165.925 113.387 166.274 112.42 166.274 111.276C166.274 110.045 166.711 108.814 167.235 108.55C167.758 108.111 167.496 107.407 166.361 106.616C164.178 105.121 164.003 102.395 165.837 100.549C166.885 99.4936 167.147 99.4936 167.147 100.372C167.147 100.988 168.283 101.604 169.854 101.691C171.339 101.779 173.085 102.307 173.696 102.835C174.221 103.275 175.006 103.45 175.268 103.098C175.618 102.835 176.316 103.011 177.015 103.538C178.674 104.945 180.508 103.45 179.809 101.164C179.547 100.197 179.547 98.8777 179.897 98.2624C180.333 97.647 180.508 96.064 180.333 94.7449C180.159 92.9862 180.508 92.283 181.468 92.283C182.254 92.283 182.865 92.6349 182.865 92.9862C182.865 94.0417 186.271 97.5587 187.406 97.5587C188.018 97.5587 188.018 97.2073 187.319 96.328C186.097 94.8328 186.795 91.4915 189.153 86.8312C190.899 83.4899 190.725 81.7312 188.455 81.7312C187.581 81.7312 187.232 80.6761 187.232 78.1259C187.232 76.1915 186.795 73.8174 186.271 72.7624C184.962 70.3 185.922 67.3105 188.629 65.464C190.812 64.0571 190.987 64.0571 192.821 65.8158C194.392 67.3984 194.48 67.9259 193.519 69.5089C192.733 70.7397 192.646 71.619 193.257 72.4105C193.781 73.0259 193.956 74.4328 193.606 75.664L193.083 77.7741L194.916 76.0158C197.099 73.8174 197.624 70.1243 196.052 68.1899C195.004 66.9587 195.004 66.3433 195.964 64.4968C197.012 62.5621 196.925 62.2104 195.266 60.9794C194.218 60.2759 193.344 58.869 193.344 57.9018C193.344 57.0225 192.733 56.2311 192.034 56.2311C191.249 56.2311 190.987 55.7035 191.336 54.8242C191.598 54.0328 191.074 52.9776 190.026 52.1862C188.978 51.4828 188.367 50.3397 188.629 49.7242C189.066 48.4931 183.739 44.8 181.556 44.8C180.944 44.8 179.547 46.119 178.499 47.7897ZM182.865 49.1086C182.865 49.9 180.77 50.9552 179.285 50.9552C178.849 50.9552 178.499 50.3397 178.499 49.6362C178.499 48.8449 179.285 48.3172 180.682 48.3172C181.905 48.3172 182.865 48.669 182.865 49.1086ZM175.356 81.6433C175.618 81.9952 176.054 83.8417 176.229 85.6C176.491 87.4465 177.015 89.3814 177.451 89.9089C178.587 91.3158 179.635 96.6793 178.849 96.6793C177.539 96.6793 172.474 90.0846 171.95 87.7984C171.077 83.9296 173.784 79.0053 175.356 81.6433ZM181.119 90.0846C181.119 90.7883 180.77 91.4037 180.333 91.4037C179.198 91.4037 178.412 89.9968 179.111 89.2931C180.071 88.3259 181.119 88.7656 181.119 90.0846ZM165.401 97.9984C165.401 98.7021 165.052 99.3174 164.615 99.3174C164.178 99.3174 163.654 98.7021 163.305 97.9984C163.043 97.2073 163.305 96.6793 164.091 96.6793C164.79 96.6793 165.401 97.2952 165.401 97.9984ZM156.668 108.99C156.668 109.43 156.232 109.869 155.708 109.869C155.271 109.869 155.096 109.43 155.359 108.99C155.621 108.462 156.057 108.111 156.319 108.111C156.494 108.111 156.668 108.462 156.668 108.99Z" fill="#9E9E9E"/>
<path d="M295.765 47.0705C295.502 47.7695 294.541 48.381 293.666 48.381C291.044 48.381 289.12 51.2642 289.12 55.0211C289.12 57.7295 289.645 59.04 291.656 60.9621C294.278 63.4084 301.01 65.4179 301.885 64.0201C302.06 63.5832 303.896 62.7969 305.819 62.1853C309.229 61.2242 313.6 56.5937 313.6 53.9726C313.6 53.4484 312.114 51.439 310.278 49.4294C307.043 45.9347 306.694 45.76 301.622 45.76C297.688 45.76 296.202 46.1095 295.765 47.0705ZM308.617 51.439C310.978 52.4 310.366 55.0211 307.48 56.1568C306.082 56.681 303.721 57.5547 302.234 58.0789C300.836 58.6032 299 58.8653 298.3 58.5158C296.726 57.9042 295.24 54.4095 296.027 53.1863C296.29 52.6621 296.552 52.0505 296.639 51.6137C296.726 51.2642 296.814 50.8274 296.902 50.5653C296.989 49.9537 306.694 50.6526 308.617 51.439Z" fill="#9E9E9E"/>
<path d="M166.811 57.7788C165.96 57.9451 165.28 58.527 165.28 58.9427C165.28 60.1066 166.64 59.8572 167.831 58.4439C168.427 57.7788 168.766 57.28 168.596 57.28C168.427 57.3631 167.576 57.5294 166.811 57.7788Z" fill="#9E9E9E"/>
<path d="M371.68 64.768C371.68 65.2086 372.466 65.8259 373.339 66.1782C374.299 66.4427 376.48 67.8534 378.226 69.2637C380.408 71.0267 382.502 71.9085 384.422 71.9085C386.953 71.9085 389.222 73.4953 399.869 82.6633C420.553 100.647 421.513 101.44 422.997 101.44C423.957 101.44 424.48 100.735 424.48 99.5886C424.48 98.2662 420.466 94.2995 410.953 86.1011C403.535 79.6657 395.768 72.6136 393.76 70.4099C390.182 66.4427 389.92 66.3549 384.771 66.1782C381.891 66.0904 379.011 65.5614 378.488 65.0325C377.266 63.7982 371.68 63.6219 371.68 64.768Z" fill="#9E9E9E"/>
<path d="M355.221 70.9139C350.411 72.5944 342.715 76.3974 342.015 77.4592C341.753 77.9013 340.004 79.3163 338.255 80.4659C334.407 82.8544 325.137 92.3181 321.989 97.0053C319.802 100.278 315.517 111.245 314.818 115.668C314.555 117.083 313.856 118.409 313.243 118.675C312.106 119.029 310.532 126.723 310.969 129.73C311.057 130.615 310.795 131.322 310.27 131.322C308.87 131.322 308.171 134.86 309.308 136.187C309.833 136.806 310.357 140.344 310.445 143.97C310.619 149.011 310.969 151.046 312.194 152.372C313.156 153.434 313.593 154.584 313.33 155.114C312.981 155.645 313.506 156.53 314.555 157.148C316.741 158.564 316.829 159.625 314.73 159.625C312.369 159.625 311.057 161.394 311.057 164.667C311.057 167.762 309.745 168.646 308.958 165.993C308.433 164.489 302.924 161.394 300.65 161.394C300.125 161.394 299.163 160.421 298.639 159.183C297.502 156.706 296.015 156.352 294.441 158.298C293.829 159.006 292.604 159.625 291.642 159.625C290.768 159.625 289.806 160.244 289.543 160.952C289.194 161.659 288.231 162.279 287.357 162.279C285.171 162.279 285.258 164.578 287.445 165.816C288.494 166.347 289.194 167.674 289.194 169C289.194 170.504 289.893 171.388 291.292 171.919C293.216 172.715 299.688 179.614 299.688 180.94C299.688 181.294 298.901 181.736 297.939 182.002C295.053 182.798 295.84 184.921 299.076 184.921C300.563 184.921 303.186 185.628 304.847 186.424C308.521 188.282 310.095 188.282 310.707 186.601C311.057 185.894 311.669 185.274 312.106 185.274C312.544 185.274 313.943 184.478 315.167 183.505C316.829 182.179 318.228 181.825 320.152 182.179C321.901 182.533 325.224 181.913 329.422 180.41C333.008 179.172 338.342 177.314 341.229 176.341C347.35 174.307 350.411 171.742 355.221 164.578C357.145 161.748 359.506 158.564 360.556 157.591C361.605 156.53 363.004 154.407 363.792 152.991C364.491 151.488 366.328 149.188 367.814 147.773C369.301 146.27 370.525 144.678 370.525 144.147C370.525 142.732 379.096 131.322 380.233 131.322C380.67 131.322 382.419 129.907 384.168 128.227C385.83 126.546 387.579 125.131 388.104 125.131C388.541 125.131 391.252 123.274 393.963 120.886C396.761 118.586 400.522 115.933 402.446 114.96C404.37 113.987 406.119 112.926 406.206 112.483C406.381 112.13 407.081 111.864 407.693 111.864C408.305 111.864 409.967 111.334 411.366 110.626C412.678 109.919 415.214 108.946 416.963 108.415C420.986 107.177 434.104 107.177 434.804 108.415C435.154 108.946 436.465 109.034 437.865 108.769C439.264 108.503 440.576 108.592 440.926 109.122C441.188 109.653 442.062 110.095 442.762 110.095C443.987 110.095 443.987 109.919 442.762 108.769C442.062 108.061 441.013 107.442 440.401 107.442C439.876 107.442 438.127 106.646 436.64 105.761C434.542 104.435 431.481 103.904 422.91 103.462C415.214 103.02 411.629 103.108 411.279 103.816C410.929 104.346 409.355 104.788 407.868 104.788C406.294 104.788 404.195 105.408 403.058 106.115C402.009 106.911 400.697 107.442 400.085 107.354C398.773 107.088 394.75 108.327 394.138 109.122C393.876 109.476 391.864 111.068 389.59 112.749C387.229 114.341 385.392 116.021 385.392 116.375C385.392 116.729 384.518 117.348 383.469 117.613C382.332 117.967 380.32 119.382 378.833 120.797C370.787 128.669 368.426 131.057 367.29 132.826C366.503 133.976 365.365 134.86 364.753 134.86C364.054 134.86 363.529 135.479 363.529 136.187C363.529 136.983 362.917 137.779 362.217 138.044C361.518 138.31 360.731 139.459 360.381 140.432C360.119 141.494 358.369 144.235 356.533 146.447C354.609 148.746 352.859 151.93 352.51 153.787C352.073 156.352 350.498 158.652 345.688 163.34C342.278 166.789 338.255 170.592 336.681 171.742C333.882 173.865 331.171 173.953 331.171 171.919C331.171 171.388 331.783 171.123 332.483 171.388C333.795 171.919 341.666 163.782 341.666 161.925C341.666 161.306 342.628 159.891 343.852 158.74C344.989 157.679 345.776 156.352 345.514 155.999C344.902 154.937 347.088 151.665 348.4 151.665C349.012 151.665 349.536 150.957 349.536 150.073C349.536 148.393 357.495 136.01 362.654 129.554C371.75 118.321 379.009 111.422 390.027 103.551C392.738 101.605 394.837 99.8358 394.663 99.5704C392.651 94.7061 392.214 94.3523 388.978 94.7944C387.229 95.0598 385.48 95.6785 385.043 96.0328C384.518 96.4749 383.119 96.8286 381.807 96.8286C378.396 96.8286 374.111 98.5091 369.039 101.958C364.404 105.054 364.054 105.585 364.404 108.68C364.491 109.565 364.054 110.715 363.354 111.068C361.78 112.13 360.643 112.041 361.343 111.068C361.868 110.095 359.157 108.327 357.32 108.327C356.445 108.327 356.445 108.592 357.232 109.388C358.719 110.892 358.544 112.13 356.882 111.51C355.046 110.803 351.898 112.572 352.51 114.076C352.772 114.783 351.985 116.11 350.848 117.083C349.624 117.967 348.662 119.117 348.662 119.559C348.662 120.09 347.875 121.151 346.913 122.036C343.764 124.866 337.818 134.33 338.954 134.683C340.441 135.214 340.091 136.452 338.342 137.071C337.38 137.337 336.243 139.106 335.544 141.317C334.232 145.65 330.996 152.549 330.209 152.549C329.947 152.549 329.422 155.91 329.16 160.067C328.897 164.136 328.198 168.292 327.761 169.265C327.061 170.504 327.148 171.035 328.11 171.388C329.16 171.831 329.16 172.273 328.023 174.572C327.061 176.607 325.924 177.402 323.475 177.845C321.726 178.199 319.715 178.818 319.103 179.348C318.403 179.879 317.703 179.967 317.179 179.437C316.217 178.464 315.779 168.735 316.654 167.85C317.004 167.497 318.753 167.231 320.677 167.143C323.913 167.143 324.087 167.055 324.525 163.605C324.874 161.659 324.7 158.829 324.35 157.414C323.125 153.169 328.635 120.444 331.259 116.729C331.608 116.198 332.133 114.606 332.396 113.014C333.095 110.007 337.118 101.782 341.753 94.1752C345.951 87.2766 356.882 76.5745 362.83 73.3907C365.628 71.8869 367.902 70.5601 367.902 70.2947C367.902 69.3217 358.457 69.7643 355.221 70.9139ZM322.163 156.706C321.901 156.972 321.202 156.883 320.677 156.53C319.89 155.999 319.89 155.645 320.764 155.114C321.989 154.407 323.125 155.733 322.163 156.706ZM299.863 167.939C302.399 170.592 305.897 173.511 307.558 174.395C309.745 175.634 310.619 176.784 310.619 178.287C310.619 180.94 308.433 181.471 306.422 179.348C300.387 172.892 296.714 169.354 296.102 169.354C295.665 169.354 295.315 168.912 295.315 168.47C295.315 167.939 294.79 167.585 294.091 167.585C293.479 167.585 292.429 166.966 291.73 166.17C290.855 165.02 290.855 164.667 291.905 163.959C294.091 162.543 295.228 163.074 299.863 167.939Z" fill="#9E9E9E"/>
<path d="M266.854 77.344C266.417 77.7841 264.317 78.4 262.129 78.664C260.028 78.928 257.841 79.5438 257.228 80.0718C256.178 80.9517 236.925 88.7838 235.875 88.7838C235.524 88.7838 232.899 89.8398 230.098 91.1598C227.385 92.3915 223.885 93.5353 222.397 93.7115C220.91 93.8877 217.496 94.8553 214.871 95.9113C212.246 96.8795 207.082 98.8153 203.494 100.135C199.906 101.543 195.18 103.391 192.992 104.447C190.805 105.415 186.867 106.999 184.241 107.879C178.553 109.815 177.065 110.607 177.678 111.663C177.94 112.015 177.502 112.631 176.715 112.895C176.015 113.159 175.665 113.863 175.928 114.391C176.715 115.535 180.566 114.655 186.516 111.927C190.892 109.991 196.668 108.583 203.932 107.791C205.42 107.615 207.782 106.823 209.183 106.031C210.67 105.239 212.42 104.623 213.121 104.623C213.821 104.623 217.584 103.215 221.347 101.543C225.198 99.8713 230.361 98.0233 232.987 97.4953C235.612 96.8795 237.887 96.0875 238.15 95.6473C238.413 95.2955 239.55 94.9437 240.776 94.9437C242.001 94.9437 243.138 94.3273 243.488 93.6237C244.013 92.0397 250.227 88.6077 251.014 89.3997C251.364 89.6637 252.94 88.6955 254.69 87.1115C257.578 84.6477 258.803 84.0318 260.641 84.2958C260.991 84.2958 261.254 84.0318 261.254 83.68C261.254 83.3277 263.442 81.832 266.067 80.4237C268.692 78.928 270.88 77.5201 270.88 77.08C270.88 76.2001 267.905 76.288 266.854 77.344Z" fill="#9E9E9E"/>
<path d="M138.065 90.4168C137.364 91.468 136.313 92.3286 135.699 92.3286C135.086 92.3286 134.56 92.7107 134.56 93.2843C134.56 93.7619 134.735 94.24 134.998 94.24C135.874 94.24 139.379 91.8505 140.343 90.5123C140.869 89.7477 142.095 89.3656 143.234 89.7477C144.198 90.0347 144.899 89.8432 144.548 89.3656C143.672 87.7408 139.379 88.5054 138.065 90.4168Z" fill="#9E9E9E"/>
<path d="M127.849 93.3208C126.792 94.8217 126.475 96.5733 127.532 96.0726C128.378 95.656 129.752 92.32 129.118 92.32C128.907 92.32 128.378 92.8201 127.849 93.3208Z" fill="#9E9E9E"/>
<path d="M121.09 96.9822C119.773 98.2581 118.72 99.5339 118.72 99.8987C118.72 100.445 121.09 98.7136 123.372 96.3443C125.83 93.7926 123.811 94.4305 121.09 96.9822Z" fill="#9E9E9E"/>
<path d="M212.396 115.12C213.009 116.099 214.148 116.989 214.936 116.989C215.812 116.989 224.748 122.595 234.823 129.447C244.985 136.388 254.446 142.707 255.848 143.596C265.748 149.915 268.726 151.961 270.04 153.385C270.917 154.364 273.895 156.144 276.698 157.479C279.414 158.813 281.955 160.237 282.218 160.682C282.831 161.75 284.32 161.661 284.32 160.593C284.32 160.059 280.904 157.39 276.698 154.631C272.406 151.872 269.515 149.47 270.128 149.202C270.654 149.025 270.917 148.491 270.654 148.046C270.303 147.512 269.69 147.512 268.989 148.135C268.201 148.847 265.748 147.69 259.265 143.418C241.919 132.206 238.765 130.07 238.765 129.269C238.765 128.913 238.414 128.646 237.977 128.735C237.626 128.913 232.282 125.62 226.149 121.527C220.017 117.434 214.148 113.874 213.184 113.607C211.607 113.251 211.52 113.34 212.396 115.12Z" fill="#9E9E9E"/>
<path d="M209.943 120.606C208.36 121.614 207.04 123.173 207.04 123.906C207.128 125.006 207.304 125.006 208.272 123.631C208.888 122.806 209.855 122.073 210.295 122.073C212.054 122.073 235.279 136.831 238.797 140.132C240.029 141.323 241.964 142.24 243.108 142.24C245.307 142.24 238.709 136.923 223.315 126.381C219.004 123.448 214.782 120.423 214.078 119.781C213.022 118.864 212.318 118.956 209.943 120.606Z" fill="#9E9E9E"/>
<path d="M379.025 163.828C378.76 164.175 378.848 165.13 379.379 166.084C379.82 166.951 380.085 167.992 379.82 168.426C378.672 170.161 388.388 176.32 392.275 176.32C394.483 176.32 401.462 172.85 400.932 171.983C400.578 171.462 398.9 171.115 397.133 171.115C392.364 171.115 389.89 170.248 389.89 168.6C389.89 167.385 389.713 167.385 389.007 168.513C388.3 169.554 387.593 169.207 384.767 166.518C381.498 163.395 380.173 162.788 379.025 163.828Z" fill="#9E9E9E"/>
<path d="M393.42 168.4C392.778 168.76 392.618 169.12 393.019 169.12C393.501 169.12 394.383 168.76 395.025 168.4C395.667 168.04 395.907 167.68 395.426 167.68C395.025 167.68 394.062 168.04 393.42 168.4Z" fill="#9E9E9E"/>
<path d="M286.72 176.382C286.72 176.889 287.076 177.294 287.522 177.294C287.967 177.294 289.035 177.598 289.926 178.003C290.905 178.408 291.262 178.307 290.905 177.598C290.104 176.18 286.72 175.167 286.72 176.382Z" fill="#9E9E9E"/>
<path d="M65.5447 232.517C64.8477 232.69 63.6275 233.119 62.9303 233.292C62.0588 233.635 62.6688 234.667 65.3704 237.075C67.3749 238.966 69.0309 240.858 69.0309 241.287C69.0309 241.803 69.9895 242.405 71.2096 242.749C72.4298 243.007 74.2601 244.469 75.3055 245.931C77.5716 249.026 90.2954 255.131 94.566 255.131C97.0932 255.131 99.7951 255.904 105.634 258.312C107.9 259.258 109.12 258.999 109.12 257.71C109.12 256.334 100.841 252.379 95.7861 251.347C91.6029 250.488 90.1212 249.714 87.4197 246.704C85.5895 244.727 83.2365 243.093 82.2775 243.093C81.3189 243.093 79.0533 241.803 77.2231 240.17C71.2965 235.011 67.4623 231.916 67.2007 232.002C67.0264 232.002 66.2421 232.26 65.5447 232.517Z" fill="#9E9E9E"/>
<path d="M186.466 437.654C184.455 438.97 185.592 447.744 188.215 450.551C192.413 455.026 208.065 460.816 223.543 463.536C225.029 463.799 228.177 464.413 230.538 464.852C237.446 466.168 242.343 466.08 242.955 464.413C243.567 462.746 240.769 458.798 238.058 457.394C237.009 456.868 235.347 455.552 234.386 454.499C232.199 452.13 231.675 452.218 228.527 454.85C226.428 456.605 225.379 456.868 222.755 456.429C219.87 455.99 219.52 455.64 219.782 453.622C219.957 452.042 220.657 451.253 222.056 451.077C223.105 450.902 223.98 450.551 223.98 450.288C223.98 448.27 210.426 441.514 209.552 443.093C208.677 444.322 206.491 444.059 207.016 442.655C207.628 441.075 203.868 440.111 199.845 440.9C197.484 441.338 196.872 441.163 196.872 440.023C196.872 439.233 196.61 438.707 196.26 438.794C195.823 438.882 193.987 438.444 192.063 437.917C187.953 436.689 188.04 436.689 186.466 437.654ZM201.681 442.129C201.944 442.567 201.769 443.005 201.332 443.005C200.807 443.005 200.37 442.567 200.37 442.129C200.37 441.602 200.545 441.251 200.72 441.251C200.982 441.251 201.419 441.602 201.681 442.129Z" fill="#9E9E9E"/>
</g>
<path fill-rule="evenodd" clip-rule="evenodd" d="M300.238 347.243L308.723 355.728L282.903 381.548V431.045L263.468 450.48L254.983 441.995L270.903 426.075V393.548L218.213 446.238L209.728 437.752L300.238 347.243Z" fill="#555555"/>
<path d="M267.711 454.723C263.025 459.409 255.427 459.409 250.74 454.723C246.054 450.037 246.054 442.439 250.74 437.752C255.427 433.066 263.025 433.066 267.711 437.752C272.397 442.439 272.397 450.037 267.711 454.723Z" fill="#555555"/>
<path d="M222.456 450.48C217.77 455.167 210.172 455.167 205.485 450.48C200.799 445.794 200.799 438.196 205.485 433.51C210.172 428.823 217.77 428.823 222.456 433.51C227.142 438.196 227.142 445.794 222.456 450.48Z" fill="#555555"/>
<path fill-rule="evenodd" clip-rule="evenodd" d="M244.694 302.556L253.179 311.042L222.409 341.811V392.723L203.681 411.451L195.196 402.966L210.409 387.752V353.811L194.853 369.368H172.226L137.213 404.38L128.728 395.894L167.255 357.368H189.882L244.694 302.556Z" fill="#555555"/>
<path d="M141.456 408.622C136.77 413.309 129.172 413.309 124.486 408.622C119.799 403.936 119.799 396.338 124.486 391.652C129.172 386.966 136.77 386.966 141.456 391.652C146.142 396.338 146.142 403.936 141.456 408.622Z" fill="#555555"/>
<path d="M207.924 415.693C203.238 420.38 195.64 420.38 190.954 415.693C186.267 411.007 186.267 403.409 190.954 398.723C195.64 394.037 203.238 394.037 207.924 398.723C212.61 403.409 212.61 411.007 207.924 415.693Z" fill="#555555"/>
<path fill-rule="evenodd" clip-rule="evenodd" d="M155.485 338.985L187.728 306.743L196.213 315.228L160.455 350.985H132.97L132.97 338.985H155.485Z" fill="#555555"/>
<path d="M132.971 356.985C126.343 356.985 120.971 351.612 120.971 344.985C120.971 338.357 126.343 332.985 132.971 332.985C139.598 332.985 144.971 338.357 144.971 344.985C144.971 351.612 139.598 356.985 132.971 356.985Z" fill="#555555"/>
<path fill-rule="evenodd" clip-rule="evenodd" d="M242 132C242 127.582 245.582 124 250 124C279.823 124 304 148.177 304 178C304 182.418 300.418 186 296 186C291.582 186 288 182.418 288 178C288 157.013 270.987 140 250 140C245.582 140 242 136.418 242 132Z" fill="#555555"/>
<path fill-rule="evenodd" clip-rule="evenodd" d="M242 100C242 95.5817 245.582 92 250 92C297.497 92 336 130.504 336 178C336 182.418 332.418 186 328 186C323.582 186 320 182.418 320 178C320 139.34 288.66 108 250 108C245.582 108 242 104.418 242 100Z" fill="#555555"/>
<path fill-rule="evenodd" clip-rule="evenodd" d="M242 68C242 63.5817 245.582 60 250 60C315.17 60 368 112.83 368 178C368 182.418 364.418 186 360 186C355.582 186 352 182.418 352 178C352 121.667 306.333 76 250 76C245.582 76 242 72.4183 242 68Z" fill="#555555"/>
<path fill-rule="evenodd" clip-rule="evenodd" d="M256 488C384.13 488 488 384.13 488 256C488 127.87 384.13 24 256 24C127.87 24 24 127.87 24 256C24 384.13 127.87 488 256 488ZM256 512C397.385 512 512 397.385 512 256C512 114.615 397.385 0 256 0C114.615 0 0 114.615 0 256C0 397.385 114.615 512 256 512Z" fill="#9E9E9E"/>
<path d="M384 361C390.627 361 396 366.373 396 373C396 379.627 390.627 385 384 385H312C305.373 385 300 379.627 300 373C300 366.373 305.373 361 312 361H384Z" fill="#9E9E9E"/>
<path d="M312 313C305.373 313 300 307.627 300 301C300 294.373 305.373 289 312 289H360C366.627 289 372 294.373 372 301C372 307.627 366.627 313 360 313H312Z" fill="#9E9E9E"/>
<path d="M300 221C300 214.373 305.373 209 312 209C318.627 209 324 214.373 324 221V373C324 379.627 318.627 385 312 385C305.373 385 300 379.627 300 373V221Z" fill="#9E9E9E"/>
<path d="M244 207C244 200.373 249.373 195 256 195C262.627 195 268 200.373 268 207V341C268 347.627 262.627 353 256 353C249.373 353 244 347.627 244 341V207Z" fill="#9E9E9E"/>
<path d="M242 173C242 165.268 248.268 159 256 159C263.732 159 270 165.268 270 173C270 180.732 263.732 187 256 187C248.268 187 242 180.732 242 173Z" fill="#9E9E9E"/>
<path d="M200 297C206.627 297 212 302.373 212 309C212 315.627 206.627 321 200 321H128C121.373 321 116 315.627 116 309C116 302.373 121.373 297 128 297H200Z" fill="#9E9E9E"/>
<path d="M128 249C121.373 249 116 243.627 116 237C116 230.373 121.373 225 128 225H200C206.627 225 212 230.373 212 237C212 243.627 206.627 249 200 249H128Z" fill="#9E9E9E"/>
<path d="M140 309C140 315.627 134.627 321 128 321C121.373 321 116 315.627 116 309L116 237C116 230.373 121.373 225 128 225C134.627 225 140 230.373 140 237V309Z" fill="#9E9E9E"/>
<path d="M188 157C188 150.373 193.373 145 200 145C206.627 145 212 150.373 212 157V309C212 315.627 206.627 321 200 321C193.373 321 188 315.627 188 309V157Z" fill="#9E9E9E"/>
</g>
<defs>
<clipPath id="clip0_221_783">
<rect width="512" height="512" fill="white"/>
</clipPath>
</defs>
</svg>
