<svg width="512" height="512" viewBox="0 0 512 512" fill="none" xmlns="http://www.w3.org/2000/svg">
<g id="dit-uop-logo-inverse-blue" clip-path="url(#clip0_221_681)">
<path id="invention" fill-rule="evenodd" clip-rule="evenodd" d="M256 512C397.385 512 512 397.385 512 256C512 114.615 397.385 0 256 0C114.615 0 0 114.615 0 256C0 397.385 114.615 512 256 512ZM242 68C242 63.5817 245.582 60 250 60C315.17 60 368 112.83 368 178C368 182.418 364.418 186 360 186C355.582 186 352 182.418 352 178C352 121.667 306.333 76 250 76C245.582 76 242 72.4183 242 68ZM242 100C242 95.5817 245.582 92 250 92C297.496 92 336 130.504 336 178C336 182.418 332.418 186 328 186C323.582 186 320 182.418 320 178C320 139.34 288.66 108 250 108C245.582 108 242 104.418 242 100ZM242 132C242 127.582 245.582 124 250 124C279.823 124 304 148.177 304 178C304 182.418 300.418 186 296 186C291.582 186 288 182.418 288 178C288 157.013 270.987 140 250 140C245.582 140 242 136.418 242 132ZM189.882 357.368L244 303.25V207C244 200.373 249.373 195 256 195C262.627 195 268 200.373 268 207V341C268 347.627 262.627 353 256 353C249.373 353 244 347.627 244 341V320.221L222.409 341.811V392.723L211.032 404.101C212.101 408.104 211.065 412.553 207.924 415.693C203.238 420.38 195.64 420.38 190.954 415.693C186.267 411.007 186.267 403.409 190.954 398.723C194.094 395.582 198.543 394.546 202.546 395.615L210.409 387.752V353.811L194.853 369.368H172.226L144.564 397.03C145.633 401.033 144.597 405.482 141.456 408.622C136.77 413.309 129.172 413.309 124.486 408.622C119.799 403.936 119.799 396.338 124.486 391.652C127.626 388.511 132.075 387.475 136.078 388.544L167.255 357.368H189.882ZM300 347.48V221C300 214.373 305.373 209 312 209C318.627 209 324 214.373 324 221V289H360C366.627 289 372 294.373 372 301C372 307.627 366.627 313 360 313H324V361H384C390.627 361 396 366.373 396 373C396 379.627 390.627 385 384 385H312C305.373 385 300 379.627 300 373V364.451L282.903 381.548V431.045L270.818 443.13C271.887 447.134 270.852 451.582 267.711 454.723C263.025 459.409 255.427 459.409 250.74 454.723C246.054 450.037 246.054 442.439 250.74 437.752C253.881 434.612 258.33 433.576 262.333 434.645L270.903 426.075V393.548L225.563 438.887C226.633 442.891 225.597 447.339 222.456 450.48C217.77 455.167 210.172 455.167 205.485 450.48C200.799 445.794 200.799 438.196 205.485 433.51C208.626 430.369 213.075 429.333 217.078 430.402L300 347.48ZM155.485 338.985L173.47 321H128C121.373 321 116 315.627 116 309L116 237C116 230.373 121.373 225 128 225H188V157C188 150.373 193.373 145 200 145C206.627 145 212 150.373 212 157L212 237L212 309C212 315.627 206.627 321 200 321H190.441L160.455 350.985H143.365C141.29 354.572 137.412 356.985 132.971 356.985C126.343 356.985 120.971 351.612 120.971 344.985C120.971 338.357 126.343 332.985 132.971 332.985C137.412 332.985 141.291 335.398 143.365 338.985H155.485ZM188 297V249H140V297H188ZM256 159C248.268 159 242 165.268 242 173C242 180.732 248.268 187 256 187C263.732 187 270 180.732 270 173C270 165.268 263.732 159 256 159Z" fill="#023C6F"/>
</g>
<defs>
<clipPath id="clip0_221_681">
<rect width="512" height="512" fill="white"/>
</clipPath>
</defs>
</svg>
